<?xml version="1.0" standalone="no"?>
<!DOCTYPE svg PUBLIC "-//W3C//DTD SVG 20010904//EN"
 "http://www.w3.org/TR/2001/REC-SVG-20010904/DTD/svg10.dtd">
<svg version="1.0" xmlns="http://www.w3.org/2000/svg"
 width="300.000000pt" height="300.000000pt" viewBox="0 0 300.000000 300.000000"
 preserveAspectRatio="xMidYMid meet">
<metadata>
Created by potrace 1.10, written by Peter Selinger 2001-2011
</metadata>
<g transform="translate(0.000000,300.000000) scale(0.100000,-0.100000)"
fill="#000000" stroke="none">
<path d="M244 2361 c-45 -21 -85 -67 -103 -120 -16 -48 -16 -1104 1 -1168 15
-62 70 -116 131 -132 34 -8 307 -11 1009 -11 910 0 964 -1 976 -17 7 -10 65
-102 128 -206 64 -103 117 -187 118 -187 0 0 0 253 -2 562 -3 630 2 592 -77
604 -51 7 -111 -10 -125 -36 -6 -11 -10 -107 -10 -224 0 -193 -1 -207 -20
-226 -25 -25 -95 -27 -128 -4 -22 15 -22 19 -22 225 0 120 -4 218 -10 229 -24
45 -154 51 -185 7 -12 -17 -15 -60 -15 -229 0 -195 -1 -209 -20 -228 -24 -24
-106 -28 -136 -6 -18 14 -19 28 -19 243 1 246 4 265 60 331 78 93 291 109 382
29 31 -28 36 -29 45 -14 5 9 28 27 51 40 35 18 58 22 132 22 80 0 97 -3 150
-30 52 -26 64 -37 88 -86 l28 -56 -1 -373 0 -373 64 6 c36 3 78 13 93 21 37
19 79 64 92 99 7 19 11 222 11 604 0 567 0 577 -21 621 -13 26 -38 54 -62 70
l-41 27 -1260 2 c-1215 3 -1263 2 -1302 -16z m2578 -38 c18 -10 43 -37 55 -59
l23 -39 0 -563 c0 -613 1 -600 -58 -655 -23 -23 -40 -29 -78 -30 l-49 -2 -6
350 c-4 256 -9 359 -18 385 -42 110 -142 170 -282 170 -73 0 -133 -14 -168
-40 -24 -17 -26 -16 -87 11 -53 24 -77 29 -141 29 -143 0 -248 -62 -289 -170
-26 -67 -33 -453 -9 -503 19 -41 50 -57 111 -57 104 0 114 25 114 271 0 218 3
229 70 229 74 0 74 -3 80 -240 l5 -212 28 -24 c22 -19 39 -24 83 -24 48 0 60
4 85 29 l29 29 0 199 c0 231 4 243 72 243 82 0 78 28 78 -507 0 -312 -3 -473
-10 -473 -6 0 -36 41 -68 91 -103 164 -117 183 -142 196 -20 10 -237 13 -995
13 -925 0 -972 1 -1005 19 -19 10 -45 33 -58 51 l-22 33 0 581 c0 558 1 582
20 613 24 40 61 65 107 72 20 3 589 5 1264 5 1193 -2 1229 -2 1261 -21z"/>
<path d="M444 2150 c-33 -13 -84 -81 -84 -113 0 -87 80 -156 163 -140 41 8 93
63 101 108 18 95 -90 182 -180 145z m104 -36 c56 -39 63 -110 16 -157 -70 -70
-188 -8 -170 89 13 67 100 106 154 68z"/>
<path d="M1208 2070 c-77 -7 -133 -47 -169 -120 -15 -30 -48 -131 -73 -225
-26 -93 -56 -199 -66 -235 -35 -121 -60 -233 -60 -266 0 -46 38 -74 101 -74
88 0 116 24 150 135 l20 65 139 0 c99 0 141 -4 147 -12 4 -7 17 -42 28 -78 26
-82 62 -110 140 -110 67 0 105 27 105 73 0 28 -39 185 -90 367 -11 36 -35 123
-55 194 -43 153 -61 191 -114 239 -36 33 -53 39 -131 50 -8 1 -41 0 -72 -3z
m169 -56 c65 -48 83 -100 229 -647 42 -157 42 -174 8 -183 -43 -11 -117 2
-134 24 -9 11 -25 56 -35 101 l-18 81 -172 0 -173 0 -16 -67 c-24 -97 -34
-119 -62 -132 -36 -16 -110 -14 -127 4 -18 17 -16 27 49 265 25 91 61 222 80
292 47 180 86 249 154 277 14 6 62 10 107 8 65 -2 87 -6 110 -23z"/>
<path d="M1209 1853 c-6 -16 -26 -84 -45 -153 -19 -69 -37 -133 -40 -142 -5
-17 5 -18 125 -18 72 0 131 4 131 9 0 16 -61 246 -76 289 -14 38 -19 42 -50
42 -28 0 -36 -5 -45 -27z m59 -26 c11 -13 33 -85 54 -175 15 -66 9 -72 -71
-72 -38 0 -72 4 -76 9 -11 18 58 251 75 251 4 0 12 -6 18 -13z"/>
<path d="M433 1855 c-17 -7 -36 -22 -42 -34 -7 -13 -11 -123 -11 -316 l0 -297
29 -29 c26 -25 37 -29 86 -29 49 0 60 4 86 29 l29 29 0 297 c0 331 -1 336 -69
355 -47 13 -69 12 -108 -5z m137 -44 c6 -12 10 -128 10 -305 0 -278 -1 -287
-21 -307 -18 -18 -30 -21 -76 -17 -32 3 -59 11 -64 19 -14 22 -11 603 3 617 7
7 39 12 75 12 51 0 64 -3 73 -19z"/>
</g>
</svg>
