<svg width="319" height="55" viewBox="0 0 319 55" fill="none" xmlns="http://www.w3.org/2000/svg">
<path d="M89.6119 28.3965C89.6119 29.5566 89.4595 30.6758 89.1548 31.7539C88.8619 32.8203 88.44 33.8223 87.8892 34.7598C87.3384 35.6855 86.6822 36.5352 85.9205 37.3086C85.1588 38.0703 84.3091 38.7266 83.3716 39.2773C82.4341 39.8281 81.4263 40.2559 80.3482 40.5605C79.2818 40.8535 78.1685 41 77.0084 41H69.4146V15.793H77.0084C78.1685 15.793 79.2818 15.9453 80.3482 16.25C81.4263 16.543 82.4341 16.9648 83.3716 17.5156C84.3091 18.0664 85.1588 18.7285 85.9205 19.502C86.6822 20.2637 87.3384 21.1133 87.8892 22.0508C88.44 22.9766 88.8619 23.9785 89.1548 25.0566C89.4595 26.123 89.6119 27.2363 89.6119 28.3965ZM84.567 28.3965C84.567 27.3535 84.3677 26.375 83.9693 25.4609C83.5826 24.5469 83.0435 23.75 82.3521 23.0703C81.6724 22.3789 80.8697 21.834 79.9439 21.4355C79.0298 21.0371 78.0513 20.8379 77.0084 20.8379H74.4947V35.9551H77.0084C78.0513 35.9551 79.0298 35.7617 79.9439 35.375C80.8697 34.9766 81.6724 34.4375 82.3521 33.7578C83.0435 33.0664 83.5826 32.2637 83.9693 31.3496C84.3677 30.4238 84.567 29.4395 84.567 28.3965ZM109.169 41H91.8893V15.793H109.169V20.8379H96.9342V25.8828H105.214V30.9277H96.9342V35.9551H109.169V41ZM131.204 41H125.087L120.235 32.8613L115.366 41H109.284L117.018 28.3965L109.284 15.793H115.366L120.235 23.9316L125.087 15.793H131.204L123.469 28.3965L131.204 41ZM140.013 23.3516C140.013 22.3086 140.212 21.3301 140.61 20.416C141.009 19.502 141.548 18.7051 142.227 18.0254C142.919 17.334 143.722 16.7891 144.636 16.3906C145.55 15.9922 146.528 15.793 147.571 15.793H159.138V20.8379H147.571C147.22 20.8379 146.891 20.9023 146.587 21.0312C146.282 21.1602 146.013 21.3418 145.778 21.5762C145.556 21.7988 145.38 22.0625 145.251 22.3672C145.122 22.6719 145.058 23 145.058 23.3516C145.058 23.7031 145.122 24.0371 145.251 24.3535C145.38 24.6582 145.556 24.9277 145.778 25.1621C146.013 25.3848 146.282 25.5605 146.587 25.6895C146.891 25.8184 147.22 25.8828 147.571 25.8828H152.616C153.659 25.8828 154.638 26.082 155.552 26.4805C156.477 26.8672 157.28 27.4062 157.96 28.0977C158.651 28.7773 159.19 29.5801 159.577 30.5059C159.975 31.4199 160.175 32.3984 160.175 33.4414C160.175 34.4844 159.975 35.4629 159.577 36.377C159.19 37.291 158.651 38.0938 157.96 38.7852C157.28 39.4648 156.477 40.0039 155.552 40.4023C154.638 40.8008 153.659 41 152.616 41H141.419V35.9551H152.616C152.968 35.9551 153.296 35.8906 153.6 35.7617C153.905 35.6328 154.169 35.457 154.391 35.2344C154.626 35 154.808 34.7305 154.936 34.4258C155.065 34.1211 155.13 33.793 155.13 33.4414C155.13 33.0898 155.065 32.7617 154.936 32.457C154.808 32.1523 154.626 31.8887 154.391 31.666C154.169 31.4316 153.905 31.25 153.6 31.1211C153.296 30.9922 152.968 30.9277 152.616 30.9277H147.571C146.528 30.9277 145.55 30.7285 144.636 30.3301C143.722 29.9316 142.919 29.3926 142.227 28.7129C141.548 28.0215 141.009 27.2188 140.61 26.3047C140.212 25.3789 140.013 24.3945 140.013 23.3516ZM182.544 38.416C181.372 39.4238 180.06 40.1973 178.606 40.7363C177.153 41.2754 175.647 41.5449 174.089 41.5449C172.894 41.5449 171.739 41.3867 170.626 41.0703C169.524 40.7656 168.487 40.332 167.515 39.7695C166.554 39.1953 165.675 38.5098 164.878 37.7129C164.081 36.916 163.395 36.0371 162.821 35.0762C162.259 34.1035 161.819 33.0664 161.503 31.9648C161.198 30.8516 161.046 29.6973 161.046 28.502C161.046 27.3066 161.198 26.1523 161.503 25.0391C161.819 23.9258 162.259 22.8887 162.821 21.9277C163.395 20.9551 164.081 20.0703 164.878 19.2734C165.675 18.4766 166.554 17.7969 167.515 17.2344C168.487 16.6602 169.524 16.2207 170.626 15.916C171.739 15.5996 172.894 15.4414 174.089 15.4414C175.647 15.4414 177.153 15.7109 178.606 16.25C180.06 16.7773 181.372 17.5508 182.544 18.5703L179.872 22.9648C179.134 22.168 178.261 21.5586 177.253 21.1367C176.245 20.7031 175.19 20.4863 174.089 20.4863C172.976 20.4863 171.933 20.6973 170.96 21.1191C169.987 21.541 169.138 22.1152 168.411 22.8418C167.685 23.5566 167.11 24.4062 166.688 25.3906C166.267 26.3633 166.056 27.4004 166.056 28.502C166.056 29.6035 166.267 30.6406 166.688 31.6133C167.11 32.5742 167.685 33.418 168.411 34.1445C169.138 34.8711 169.987 35.4453 170.96 35.8672C171.933 36.2891 172.976 36.5 174.089 36.5C175.19 36.5 176.245 36.2891 177.253 35.8672C178.261 35.4336 179.134 34.8184 179.872 34.0215L182.544 38.416ZM189.444 20.8379V30.9277H194.489C195.181 30.9277 195.831 30.7988 196.44 30.541C197.05 30.2715 197.583 29.9082 198.04 29.4512C198.497 28.9941 198.855 28.4609 199.112 27.8516C199.382 27.2305 199.517 26.5742 199.517 25.8828C199.517 25.1914 199.382 24.541 199.112 23.9316C198.855 23.3105 198.497 22.7715 198.04 22.3145C197.583 21.8574 197.05 21.5 196.44 21.2422C195.831 20.9727 195.181 20.8379 194.489 20.8379H189.444ZM189.444 41H184.399V15.793H194.489C195.415 15.793 196.306 15.916 197.161 16.1621C198.017 16.3965 198.814 16.7363 199.552 17.1816C200.302 17.6152 200.981 18.1426 201.591 18.7637C202.212 19.373 202.739 20.0527 203.173 20.8027C203.618 21.5527 203.958 22.3555 204.192 23.2109C204.439 24.0664 204.562 24.957 204.562 25.8828C204.562 26.75 204.45 27.5938 204.228 28.4141C204.017 29.2344 203.706 30.0137 203.296 30.752C202.897 31.4902 202.405 32.1699 201.819 32.791C201.233 33.4121 200.577 33.9512 199.851 34.4082L202.646 41H197.284L195.087 35.9199L189.444 35.9551V41ZM224.083 41H206.804V15.793H224.083V20.8379H211.849V25.8828H220.128V30.9277H211.849V35.9551H224.083V41ZM243.816 41H226.536V15.793H243.816V20.8379H231.581V25.8828H239.861V30.9277H231.581V35.9551H243.816V41ZM266.431 41H261.034L251.314 24.4062V41H246.269V15.793H251.665L261.386 32.4043V15.793H266.431V41ZM287.324 41H270.044V15.793H287.324V20.8379H275.089V25.8828H283.369V30.9277H275.089V35.9551H287.324V41ZM294.822 20.8379V30.9277H299.867C300.558 30.9277 301.208 30.7988 301.818 30.541C302.427 30.2715 302.96 29.9082 303.417 29.4512C303.874 28.9941 304.232 28.4609 304.49 27.8516C304.759 27.2305 304.894 26.5742 304.894 25.8828C304.894 25.1914 304.759 24.541 304.49 23.9316C304.232 23.3105 303.874 22.7715 303.417 22.3145C302.96 21.8574 302.427 21.5 301.818 21.2422C301.208 20.9727 300.558 20.8379 299.867 20.8379H294.822ZM294.822 41H289.777V15.793H299.867C300.792 15.793 301.683 15.916 302.539 16.1621C303.394 16.3965 304.191 16.7363 304.929 17.1816C305.679 17.6152 306.359 18.1426 306.968 18.7637C307.589 19.373 308.117 20.0527 308.55 20.8027C308.996 21.5527 309.335 22.3555 309.57 23.2109C309.816 24.0664 309.939 24.957 309.939 25.8828C309.939 26.75 309.828 27.5938 309.605 28.4141C309.394 29.2344 309.083 30.0137 308.673 30.752C308.275 31.4902 307.783 32.1699 307.197 32.791C306.611 33.4121 305.955 33.9512 305.228 34.4082L308.023 41H302.662L300.464 35.9199L294.822 35.9551V41Z" fill="black"/>
<g clip-path="url(#clip0_2001_18)">
<path fill-rule="evenodd" clip-rule="evenodd" d="M28.4002 19.5921C30.117 18.7532 32.3014 17.5182 34.4885 15.8262C34.9497 16.7647 35.0002 17.5837 34.7626 18.245C34.5942 18.711 34.277 19.1163 33.8598 19.4388C33.408 19.7873 32.8438 20.0411 32.2201 20.1782C31.0366 20.4395 29.6549 20.2869 28.4002 19.5921ZM28.6978 28.1879L30.9704 29.4743C26.3302 32.023 25.0688 36.7556 23.5703 41.3651C22.072 36.7556 20.8104 32.023 16.1704 29.4743L18.4429 28.1879C18.6628 28.1064 18.8507 27.9589 18.9797 27.7664C19.1088 27.5739 19.1723 27.3463 19.1613 27.1163C18.9531 22.7993 20.1425 20.8903 21.7469 19.6916C22.3223 19.2623 22.9505 19.0467 23.5703 19.0467C24.1901 19.0467 24.8183 19.2623 25.3939 19.6916C26.9982 20.8903 28.1877 22.7993 27.9795 27.1163C27.9684 27.3463 28.032 27.5739 28.161 27.7664C28.2901 27.9589 28.478 28.1064 28.6978 28.1879ZM23.5703 0C26.1972 0.0691167 28.8306 0.568883 31.1161 1.5411C32.6988 2.21522 34.1756 3.10567 35.5128 4.17047C36.1166 4.65117 36.6139 5.11555 37.1616 5.65015C38.639 5.7002 40.798 4.09182 41.8004 2.58683C40.0753 8.129 32.2036 14.6738 26.7539 17.1781C26.7517 17.1772 26.7502 17.1759 26.7485 17.1748C25.7705 16.443 24.6705 16.077 23.5703 16.077C22.4701 16.077 21.3703 16.443 20.3923 17.1748C20.3906 17.1758 20.3891 17.1774 20.3868 17.1781C14.937 14.6738 7.06543 8.129 5.34041 2.58683C6.34257 4.09182 8.5016 5.7002 9.97893 5.65015C10.5269 5.11573 11.0241 4.65117 11.6278 4.17047C12.965 3.10567 14.4418 2.21522 16.0244 1.5411C18.3101 0.568883 20.9436 0.0691167 23.5703 0ZM18.7404 19.5921C17.0238 18.7532 14.8391 17.5182 12.6522 15.8262C12.1911 16.7647 12.1406 17.5837 12.378 18.245C12.5465 18.711 12.8638 19.1163 13.2808 19.4388C13.7328 19.7873 14.297 20.0411 14.9207 20.1782C16.1041 20.4395 17.4857 20.2869 18.7404 19.5921Z" fill="black"/>
<path fill-rule="evenodd" clip-rule="evenodd" d="M36.885 13.7996C38.089 12.6088 39.1499 11.2908 40.003 10.1147L40.4362 10.9139C41.8311 13.6487 42.5558 16.3725 42.5558 19.4378L42.5528 24.302L42.579 26.8236C42.68 33.014 44.0468 39.2772 47.1429 45.0089L40.665 39.8899L36.0815 47.1791L31.2662 42.7367L23.5714 54.974L15.8767 42.7369L11.0615 47.1792L6.47803 39.8901L0 45.0091C3.09609 39.2774 4.46286 33.0142 4.56406 26.8237L4.59026 24.3022L4.58726 19.438C4.58726 16.3725 5.3118 13.6487 6.70701 10.9141L7.14008 10.1149C7.99315 11.291 9.05386 12.6088 10.2581 13.7997L9.88204 14.5652C9.15151 16.0518 8.90963 17.7141 9.47871 19.295C9.84556 20.3132 10.5151 21.1864 11.3783 21.853C12.2164 22.5004 13.2082 22.9367 14.2467 23.1659C14.9231 23.3151 15.6123 23.3765 16.297 23.3556C16.1373 24.2431 16.0675 25.1637 16.063 26.1016L9.95238 29.5604L14.6678 32.1507C15.0447 32.3578 15.4035 32.595 15.7405 32.86C19.6281 36.2806 21.9654 46.4001 23.5716 51.3429C25.178 46.4001 27.5152 36.2806 31.4029 32.86C31.7399 32.595 32.0987 32.3577 32.4756 32.1507L37.191 29.5604L31.0802 26.1016C31.0757 25.1637 31.006 24.2431 30.8462 23.3556C31.5309 23.3765 32.2201 23.3151 32.8965 23.1659C33.935 22.9367 34.9271 22.5004 35.765 21.853C36.6279 21.1864 37.2977 20.3132 37.6643 19.295C38.2336 17.7141 37.9915 16.052 37.2612 14.5652L36.8852 13.7997L36.885 13.7996Z" fill="black"/>
</g>
<defs>
<clipPath id="clip0_2001_18">
<rect width="47.1429" height="55" fill="white"/>
</clipPath>
</defs>
</svg>
