<svg width="262" height="55" viewBox="0 0 262 55" fill="none" xmlns="http://www.w3.org/2000/svg">
<path d="M179.971 19.0287C174.358 19.7353 170.22 22.9632 168.699 27.7811C167.652 31.0572 167.779 34.1728 169.095 37.3365C170.649 41.0784 173.994 43.7443 178.433 44.756C179.717 45.0612 183.03 45.0772 184.362 44.8203C189.515 43.7925 193.113 40.5484 194.604 35.6342C194.952 34.4619 195 34.1086 195 32.0208C195 29.9331 194.952 29.5798 194.604 28.4074C193.129 23.5575 189.657 20.3616 184.695 19.3017C183.665 19.0929 180.843 18.9323 179.971 19.0287ZM183.11 25.4043C184.965 25.9021 186.724 27.1227 187.533 28.552C188.785 30.7039 188.738 33.5465 187.438 35.6021C185.107 39.3118 179.78 39.9221 176.578 36.8387C173.914 34.2692 173.819 30.19 176.356 27.4117C178.052 25.581 180.747 24.794 183.11 25.4043Z" fill="#1D1D1B"/>
<path d="M206.971 19.0287C201.358 19.7353 197.22 22.9632 195.699 27.7811C194.652 31.0572 194.779 34.1728 196.095 37.3365C197.649 41.0784 200.994 43.7443 205.433 44.756C206.717 45.0612 210.03 45.0772 211.362 44.8203C216.515 43.7925 220.113 40.5484 221.604 35.6342C221.952 34.4619 222 34.1086 222 32.0208C222 29.9331 221.952 29.5798 221.604 28.4074C220.129 23.5575 216.657 20.3616 211.695 19.3017C210.665 19.0929 207.843 18.9323 206.971 19.0287ZM210.125 25.4043C211.996 25.9021 213.74 27.1227 214.549 28.552C215.801 30.7039 215.754 33.5465 214.454 35.6021C212.123 39.3118 206.796 39.9221 203.594 36.8387C200.93 34.2692 200.835 30.19 203.372 27.4117C205.052 25.581 207.747 24.794 210.125 25.4043Z" fill="#1D1D1B"/>
<path d="M243.706 19.1202C240.412 19.6019 237.934 21.7211 237.134 24.7714C236.367 27.6452 236.91 30.5831 238.445 32.012C239.357 32.8629 240.444 33.3605 243.434 34.3238C246.328 35.255 246.984 35.6563 247.287 36.6356C247.623 37.7595 246.792 39.108 245.529 39.4612C244.841 39.6539 243.546 39.6539 242.682 39.4452C241.739 39.2204 240.044 38.3856 239.325 37.7595C239.005 37.4544 238.637 37.2297 238.573 37.2297C238.509 37.2297 238.142 37.7755 237.79 38.4498C237.294 39.397 237.134 39.6057 237.102 39.3488L237.054 39.0277H233.201H229.364V29.2988V19.5698H226.182H223V32.0441V44.5184H230.019H237.038V43.828C237.038 43.4588 237.07 43.1537 237.102 43.1537C237.134 43.1537 237.71 43.4267 238.381 43.7317C240.46 44.711 241.787 45 244.361 45C246.872 45 248.055 44.7752 249.606 44.0207C250.837 43.4267 252.5 41.7731 253.059 40.6171C254.163 38.3053 254.322 35.1907 253.395 33.2161C253.235 32.8468 252.692 32.1243 252.18 31.6267C251.093 30.535 249.925 29.9409 246.936 28.9777C245.752 28.6084 244.569 28.1589 244.297 27.9984C243.338 27.4043 243.146 26.1039 243.898 25.2852C245.209 23.8724 247.543 24.0008 249.973 25.6223L250.453 25.9273L251.748 23.4389C252.436 22.0903 253.011 20.9505 252.979 20.9344C252.835 20.7899 251.029 20.0675 250.005 19.7464C247.847 19.0721 245.576 18.8313 243.706 19.1202Z" fill="#1D1D1B"/>
<path d="M68 29V45H73.6219C76.7124 45 79.9427 44.9062 80.7813 44.8125C87.7233 43.9531 92.8483 39.7187 94.4945 33.5C95.0381 31.4375 95.1623 27.8125 94.7741 25.6562C93.982 21.4687 91.8233 18.0937 88.4999 15.8125C87.009 14.7812 85.6734 14.2187 83.5302 13.625C81.8529 13.1719 81.5889 13.1719 74.9109 13.0781L68.0155 13V29H68ZM80.2689 19.5313C84.6328 20.4688 87.537 24.1406 87.537 28.7344C87.5215 31.7812 86.5896 34.4063 84.8503 36.1406C83.1264 37.8906 80.5639 38.7344 76.992 38.75H75.2992V29.0156V19.2813H77.1783C78.2033 19.2813 79.5855 19.4063 80.2689 19.5313Z" fill="#1D1D1B"/>
<path d="M98 28.9765V44.9844L111.431 44.9687H124.846L128.305 40.0865C130.222 37.4264 131.826 35.2357 131.873 35.2357C131.951 35.2357 133.556 37.4264 135.457 40.1178L138.931 45H143.294C145.678 45 147.641 44.9374 147.641 44.8905C147.641 44.8279 145.07 41.2289 141.97 36.8944L136.298 29.0078L141.72 21.4029C144.712 17.2406 147.314 13.6572 147.485 13.4538C147.828 13.1095 147.828 13.1565 147.828 16.3643V19.6191H151.131H154.435V32.3095V45H158.377H162.319V32.3095V19.6191L166.167 19.5878L170 19.5252L167.943 16.2704L165.887 13.0156L152.425 13H138.947L135.488 17.8822C133.572 20.5423 131.967 22.733 131.92 22.7643C131.858 22.7643 130.253 20.5736 128.352 17.8822L124.877 13H111.462H98.0312V28.9765H98ZM121.699 20.9648C124.784 25.2523 127.308 28.8513 127.308 28.9609C127.308 29.0704 124.784 32.7007 121.683 37.0196L116.043 44.8748L115.981 41.8078L115.949 38.7408H110.636H105.323V35.1418V31.5584H109.623H113.924V28.5227V25.487H109.623H105.323V22.3575V19.2279H110.636H115.949V16.1922C115.949 14.5179 115.981 13.1565 116.027 13.1565C116.074 13.1565 118.614 16.6773 121.699 20.9648Z" fill="#1D1D1B"/>
<path fill-rule="evenodd" clip-rule="evenodd" d="M33.1256 5.59488C30.0263 7.21237 27.4792 8.57804 27.4888 8.63615C27.4888 8.78143 34.9367 12.5491 35.1982 12.5394C35.3144 12.5394 36.1861 12.1326 37.1352 11.6484L38.8592 10.767L40.7381 11.7355L42.617 12.7041L45.6969 11.319C50.3264 9.23665 50.8107 9.0042 50.7332 8.9364C50.6363 8.82986 48.9705 7.93879 44.4572 5.56583C42.2781 4.42293 40.1667 3.28972 39.7599 3.06695C39.3531 2.83449 38.9657 2.66016 38.8979 2.66016C38.8302 2.66016 36.2248 3.97739 33.1256 5.59488ZM19.518 12.646L16.2831 14.3119V21.6342C16.2831 25.6634 16.3219 28.9565 16.38 28.9565C16.4284 28.9565 18.0168 28.2688 19.9151 27.4261L23.3533 25.8958V18.1764L25.0288 19.0869C26.3266 19.7939 27.6147 20.4913 28.9126 21.1983L31.1208 22.3897L32.099 21.9441C32.7188 21.6632 33.329 21.3823 33.9391 21.1015C34.4137 20.8787 35.5759 20.3557 36.5251 19.9392C37.4742 19.5227 38.3459 19.0966 38.4718 18.9997C38.6364 18.8738 36.6219 17.76 31.0239 14.8833C26.8012 12.7138 23.208 10.951 23.0434 10.9607C22.8787 10.9704 21.2903 11.7258 19.518 12.646ZM51.3046 13.1109C49.1061 14.1085 47.3047 14.9608 47.3047 15.0092C47.3047 15.0577 48.5056 15.7744 49.9681 16.5977C51.4402 17.421 52.6315 18.1377 52.6315 18.1958C52.6315 18.2539 51.3337 18.8835 49.7453 19.5905C48.1569 20.3073 44.1473 22.1185 40.8253 23.6197L29.7164 28.6465C26.9174 29.9056 24.3993 31.0485 24.1184 31.1745C18.4139 33.7605 16.8352 34.4772 16.6221 34.6031C16.409 34.7291 16.3606 35.4458 16.3219 39.0585L16.2734 43.3686L19.1596 44.8408L22.0458 46.313L26.0554 44.5018C28.254 43.5042 30.0651 42.6422 30.0651 42.5744C30.0651 42.5066 29.6583 42.2451 29.1644 41.9835C28.6704 41.722 27.6438 41.1409 26.8787 40.6954C26.1232 40.2498 25.3678 39.843 25.2031 39.7849C25.0385 39.7268 24.9029 39.6396 24.9029 39.5718C24.9029 39.5137 26.6656 38.6711 28.8254 37.7122C33.0094 35.8429 36.2055 34.3997 43.0722 31.2907C46.1424 29.9056 49.2126 28.5109 52.2925 27.1259C54.9947 25.9055 58.1327 24.4817 59.2658 23.9587L61.3288 23.0095L61.3772 18.651L61.4256 14.2925L58.5007 12.8009C56.893 11.9777 55.508 11.2997 55.4402 11.2997C55.3627 11.2997 53.5032 12.1229 51.3046 13.1109ZM60.5539 28.8402C60.1181 29.0533 59.2658 29.4504 58.6556 29.7216C58.0455 29.9928 56.8833 30.5158 56.0794 30.8839L54.6169 31.5522L54.5879 35.378C54.5685 37.4798 54.491 39.1941 54.4136 39.1844C54.2392 39.1554 51.4983 37.751 48.7381 36.2691C46.7429 35.2036 46.617 35.1552 46.1521 35.3877C45.8809 35.5233 44.2635 36.2497 42.5589 36.9955C40.8543 37.751 39.4016 38.4096 39.3338 38.4774C39.266 38.5355 42.6945 40.3951 46.9657 42.6131L54.7138 46.6423L58.0261 44.928C59.8469 43.9885 61.3965 43.1264 61.4643 43.0199C61.629 42.7778 61.6096 28.4238 61.4547 28.4431C61.3869 28.4528 60.9801 28.6271 60.5539 28.8402ZM42.2103 45.6834C41.6388 45.9256 41.0577 46.1774 40.4863 46.4292C38.7527 47.175 39.0916 47.2041 37.0287 46.1774C35.6534 45.4897 35.0626 45.2863 34.8011 45.3832C34.6074 45.4607 32.9513 46.2065 31.1111 47.0394C29.2806 47.8724 27.7116 48.56 27.6341 48.56C26.8593 48.56 28.1474 49.3252 33.0869 51.8144L38.8786 54.7394L41.3192 53.5384C42.6558 52.8798 45.3676 51.5529 47.324 50.594C49.2901 49.6351 50.8688 48.8312 50.8397 48.7925C50.8107 48.7634 49.1642 47.9208 47.1787 46.9135L43.5759 45.0926L42.2103 45.6834Z" fill="black"/>
</svg>
