<svg xmlns="http://www.w3.org/2000/svg" xmlns:xlink="http://www.w3.org/1999/xlink" viewBox="0 0 200 200"><defs><style>.bb3e8bcb-d943-4fb4-9597-320cf7cf4ac6{isolation:isolate;}.a945e619-962f-4de3-9350-9152aae5174a{fill:#f1eff8;}.aba430a5-61c1-451e-8faf-d36f3b73c82f,.b9ffefea-d399-4e2b-9bbb-8769f4b85773,.e1ae8ad1-afe6-46c6-948e-dadf575d4979{opacity:0.7;}.a4e79a7c-864e-4da1-9ba5-f5c7052cabc2,.aba430a5-61c1-451e-8faf-d36f3b73c82f,.b0cc4c5f-ac05-40b7-9369-0a92d17b718e,.b4edd0fa-b5e3-423e-b38c-0c714b45e6bb,.b941bc7a-2541-43e5-badf-903c03bbfa4d,.b9ffefea-d399-4e2b-9bbb-8769f4b85773,.bcd3d5fd-1af7-4c76-ab46-50b173db247b,.e1ae8ad1-afe6-46c6-948e-dadf575d4979,.f1d0143c-3bfe-4e43-8c54-9ed727a8c664{mix-blend-mode:overlay;}.aba430a5-61c1-451e-8faf-d36f3b73c82f{fill:url(#f02cdb39-8401-423f-b0b8-6daf139ac37e);}.b9ffefea-d399-4e2b-9bbb-8769f4b85773{fill:url(#eb944113-36c2-404c-8320-cec2fb1adff1);}.e1ae8ad1-afe6-46c6-948e-dadf575d4979{fill:url(#ac3d088c-8fec-4e57-967c-a770c01ed3c2);}.be8e9b1e-795c-4e7e-83b1-9e856c00f536{fill:#477cca;}.a2b02bd9-43ef-4162-9046-f9e01ffc6908{fill:#22c0db;}.e04067bd-4fb8-4dfd-8d3a-681d91cfbbaf{fill:#fdfdfd;}.fd4c02bf-3268-4ce8-abf7-23dcfa9fc37d{fill:#10e2e4;}.f17e27b0-2840-4e09-82c7-5c73b9142bb8{fill:#5a5ac1;}.f5c07a76-e93b-4f67-96a7-1d55a8e02ecc{fill:#6c38b8;}.f0aa8bd6-0e16-4eec-b87a-619aa2a7cd1e{fill:#faf1f3;}.a281e01d-5fa1-449a-ab40-8c8289ab8c0e{fill:#fff;}.beee69ef-3d08-42e4-972f-e7e184555f39{fill:#359ed2;}.a4e79a7c-864e-4da1-9ba5-f5c7052cabc2,.b0cc4c5f-ac05-40b7-9369-0a92d17b718e,.b4edd0fa-b5e3-423e-b38c-0c714b45e6bb,.b941bc7a-2541-43e5-badf-903c03bbfa4d,.bcd3d5fd-1af7-4c76-ab46-50b173db247b,.f1d0143c-3bfe-4e43-8c54-9ed727a8c664{opacity:0.75;}.bcd3d5fd-1af7-4c76-ab46-50b173db247b{fill:url(#f17fb060-64db-40b3-8365-717d051031a2);}.b4edd0fa-b5e3-423e-b38c-0c714b45e6bb{fill:url(#a85dce42-ca53-4104-942e-07903c2e9c61);}.f83f80ce-5d9a-4df4-8576-ba3a93b07010{opacity:0.1;}.fe8e4f8d-61cc-44b0-b950-1703d13a7686{fill:#42c3c6;}.e2a13dde-5f54-437f-88d3-e6d8c319d78e{fill:#81e6ef;}.e1c598bb-2a7a-41ab-aa96-20f998a34115{fill:#e2f0f1;}.a94c8b85-d5b2-4a9b-94f5-deedfcdbbbb0{fill:#13316d;}.b0cc4c5f-ac05-40b7-9369-0a92d17b718e{fill:url(#b785ed19-f6d2-411f-983b-68e3088abfde);}.f1d0143c-3bfe-4e43-8c54-9ed727a8c664{fill:url(#aa71335d-66cd-492d-a91d-4cced83fc5e1);}.b941bc7a-2541-43e5-badf-903c03bbfa4d{fill:url(#b67fa968-4862-4c5d-bbcb-dee320f8c285);}.a1a3495b-ba33-4363-9468-01342b925f9f{fill:#61e0eb;}.a4e79a7c-864e-4da1-9ba5-f5c7052cabc2{fill:url(#a2b969c2-7bfb-4537-a98f-3ab92c0d1503);}.fcb6ce1f-93e4-4600-9d4e-eaba85b6a617{fill:#fbd783;}.e49c6452-5168-4af7-8ebf-444c62148114{fill:#6844cc;}.aba5d956-af5d-42e9-8f45-4eeb08b85730{fill:#2a195b;}</style><linearGradient id="f02cdb39-8401-423f-b0b8-6daf139ac37e" x1="103.86569" y1="56.61042" x2="135.79381" y2="119.3934" gradientUnits="userSpaceOnUse"><stop offset="0" stop-color="#fff"/><stop offset="0.20646" stop-color="#c8c8c8"/><stop offset="0.75869" stop-color="#393939"/><stop offset="1"/></linearGradient><linearGradient id="eb944113-36c2-404c-8320-cec2fb1adff1" x1="74.34648" y1="55.7187" x2="68.71205" y2="112.46513" xlink:href="#f02cdb39-8401-423f-b0b8-6daf139ac37e"/><linearGradient id="ac3d088c-8fec-4e57-967c-a770c01ed3c2" x1="99.33723" y1="133.94382" x2="100.94706" y2="175.26242" xlink:href="#f02cdb39-8401-423f-b0b8-6daf139ac37e"/><linearGradient id="f17fb060-64db-40b3-8365-717d051031a2" x1="121.48397" y1="43.72063" x2="149.65591" y2="115.35767" gradientUnits="userSpaceOnUse"><stop offset="0.00766" stop-color="#fff"/><stop offset="0.05003" stop-color="#efefef"/><stop offset="0.2567" stop-color="#a8a8a8"/><stop offset="0.4515" stop-color="#6c6c6c"/><stop offset="0.6286" stop-color="#3d3d3d"/><stop offset="0.7847" stop-color="#1c1c1c"/><stop offset="0.91382" stop-color="#070707"/><stop offset="1"/></linearGradient><linearGradient id="a85dce42-ca53-4104-942e-07903c2e9c61" x1="122.9307" y1="104.355" x2="143.45585" y2="156.27157" xlink:href="#f17fb060-64db-40b3-8365-717d051031a2"/><linearGradient id="b785ed19-f6d2-411f-983b-68e3088abfde" x1="84.8047" y1="104.36073" x2="107.3799" y2="145.25413" xlink:href="#f17fb060-64db-40b3-8365-717d051031a2"/><linearGradient id="aa71335d-66cd-492d-a91d-4cced83fc5e1" x1="80.24661" y1="106.42092" x2="102.82191" y2="147.31447" xlink:href="#f17fb060-64db-40b3-8365-717d051031a2"/><linearGradient id="b67fa968-4862-4c5d-bbcb-dee320f8c285" x1="75.6886" y1="108.48123" x2="98.2638" y2="149.37463" xlink:href="#f17fb060-64db-40b3-8365-717d051031a2"/><linearGradient id="a2b969c2-7bfb-4537-a98f-3ab92c0d1503" x1="79.88603" y1="124.98644" x2="98.20422" y2="160.20386" xlink:href="#f17fb060-64db-40b3-8365-717d051031a2"/></defs><title>Artboard 25</title><g class="bb3e8bcb-d943-4fb4-9597-320cf7cf4ac6"><g id="f8699673-9c6a-4837-bec2-a43f4f0d83d5" data-name="Layer 1"><g id="fc1bd456-f027-48b6-84b5-a70d8be359b1" data-name="Digital Wallet"><path class="a945e619-962f-4de3-9350-9152aae5174a" d="M175.2165,144.4317c-3.2428,9.2905-11.469,11.97-22.8003,10.2421-15.4132-2.3414-23.4265-4.3948-56.9823,10.0417-32.0158,13.7854-76.4522-2.7045-70.2544-14.4616a6.68315,6.68315,0,0,1,1.2396-1.6652c6.4858-6.4858,12.9841-22.4624,10.6552-40.0541a54.59947,54.59947,0,0,0-2.0409-9.2529c-6.611-21.01.1878-35.7345,15.025-42.5458,6.01-2.7546,13.4098.5634,20.8722,3.5058,10.9933,4.3072,22.0993,7.7754,29.0609-10.1794,5.5967-14.4491,17.7795-19.6702,30.0749-19.9958,13.3598-.3505,26.8447,5.0835,32.1786,10.7429,10.2295,10.8681-6.8614,19.9331,2.9674,45.8513,6.298,16.6401,9.8289,29.7118,11.0434,39.7786C177.1698,134.0895,176.7566,140.0119,175.2165,144.4317Z"/><path class="aba430a5-61c1-451e-8faf-d36f3b73c82f" d="M176.2558,126.4393a7.07391,7.07391,0,0,1-2.3164-1.9282c-15.3881-19.1819-46.4772-14.6118-61.7401-7.5125s-48.8062-2.5417-52.3496-15.4757,14.8121-24.904,44.6993-24.641c27.4957.2379,31.2145-29.136,25.5174-46.8154,13.3598-.3505,26.8447,5.0835,32.1786,10.7429,10.2295,10.8681-6.8614,19.9331,2.9674,45.8513C171.5104,103.3008,175.0413,116.3725,176.2558,126.4393Z"/><path class="b9ffefea-d399-4e2b-9bbb-8769f4b85773" d="M109.6324,95.0871c-.2754,4.5702-4.9456,7.5501-9.3279,8.8773a35.98355,35.98355,0,0,1-17.0659.9516c-7.8881-1.4774-15.4257-5.5968-23.4265-5.0083-8.126.601-15.05,5.9223-22.7378,8.6269a54.59947,54.59947,0,0,0-2.0409-9.2529c-6.611-21.01.1878-35.7345,15.025-42.5458,6.01-2.7546,13.4098.5634,20.8722,3.5058v.6761c.313,5.3714,2.0784,10.843,5.9223,14.5993,6.4232,6.298,16.5777,6.2604,24.8414,9.8163C105.8011,87.0988,109.9079,90.6173,109.6324,95.0871Z"/><path class="e1ae8ad1-afe6-46c6-948e-dadf575d4979" d="M175.2165,144.4317c-3.2428,9.2905-11.469,11.97-22.8003,10.2421-15.4132-2.3414-23.4265-4.3948-56.9823,10.0417-32.0158,13.7854-76.4522-2.7045-70.2544-14.4616.0752.0125.1378.0125.2129.0251a50.23422,50.23422,0,0,0,16.4022-1.1645c11.394-2.5918,22.0242-7.9006,33.3555-10.7804,16.8781-4.2946,34.7578-3.0676,51.7611.651,7.1119,1.5651,14.1235,3.5435,21.3104,4.6704a112.74523,112.74523,0,0,0,25.2421.8889C174.0396,144.5069,174.6281,144.4568,175.2165,144.4317Z"/><path class="be8e9b1e-795c-4e7e-83b1-9e856c00f536" d="M28.6405,134.38c2.6349.1378,9.4185-3.9073,10.1162-6.9433-1.2875-1.4236-8.9393-.3713-10.7939,4.4667a37.69,37.69,0,0,1-1.1312-9.1465c1.6694.7138,7.9659-2.8638,8.5711-5.4972-.9895-1.0941-6.6503-.3701-8.4565,3.089a22.909,22.909,0,0,1,2.1645-8.0854c1.006.8905,6.3859-.2417,7.4797-1.9904-.3968-.9264-4.0081-1.6445-6.2614-.1373a18.52312,18.52312,0,0,1,2.4768-2.9982c1.3183.3109,4.7351-.531,5.4969-1.7488-.3849-.8985-4.6183-1.5492-5.9433,1.0313l-.0003.0011a19.35893,19.35893,0,0,0-2.1179,2.3803c-1.0847-1.9637-4.3863-1.4921-4.7078-.7848.5608.9392,3.0502,1.6251,4.2161,1.4894a20.47193,20.47193,0,0,0-2.5044,5.122c-1.9476-3.6186-7.9955-2.7579-8.5822-1.4671,1.1233,1.8813,6.5177,3.2122,8.2418,2.5913a28.19691,28.19691,0,0,0-.8917,8.4968c-2.5102-3.5986-8.9509-2.6237-9.5996-1.1966,1.3414,2.2464,7.9659,3.8135,9.7014,2.9044a43.97259,43.97259,0,0,0,2.4528,10.9019c-3.3248-3.7799-10.598-2.6217-11.3606-.944,1.7625,2.9515,10.9495,4.9467,12.265,3.2851a51.05926,51.05926,0,0,0,3.1723,6.3737l.7441-.3961A50.27177,50.27177,0,0,1,28.6405,134.38Z"/><path class="a2b02bd9-43ef-4162-9046-f9e01ffc6908" d="M35.2163,148.683c.2007-4.9142,1.4123-12.4529-.7084-12.7598s-1.5934,3.231-3.1141,2.7343-1.1783-2.7909-.2304-6.8349-1.956-6.6312-3.8869-6.3381.2293,6.5338-1.5241,7.4867-.6263-6.1156-4.168-8.0217-5.1021-1.2881-3.9128,1.449,1.7941,4.6692-.4109,4.4698-5.3008-2.7632-6.2576.0984,4.4867,2.4728,4.1776,5.2168-4.6364,2.7052-4.8696,4.3107,3.2745,2.9121,5.6523,1.6496,4.3363-2.6103,5.1329-.7016-3.3133,1.4151-4.0878,3.5342,6.3456,2.2274,9.3822,1.099,2.5156.5121.9119,1.4956c-2.7694,1.6983.5853,2.2168,3.0641,1.3411C32.8871,148.0217,35.0963,151.6214,35.2163,148.683Z"/><path class="e04067bd-4fb8-4dfd-8d3a-681d91cfbbaf" d="M32.3381,143.3288a1.41061,1.41061,0,0,0,.3455-.5279c.0183-.0452.0369-.0891.0557-.1313.1375-.3069.2645-.6176.3764-.9246a8.08192,8.08192,0,0,0,.561-2.1554.14267.14267,0,0,0-.2846-.0204,7.85329,7.85329,0,0,1-.5442,2.0781c-.1094.3001-.234.605-.3691.9055-.0198.0443-.039.091-.059.1393a1.26692,1.26692,0,0,1-.2409.401,22.50479,22.50479,0,0,0-1.4122-1.8856l-.0021-.0088-.0104-.0064a23.77177,23.77177,0,0,0-1.7109-1.8768,18.9454,18.9454,0,0,0-2.0209-1.6753,2.44751,2.44751,0,0,0,.878-1.0441,11.68236,11.68236,0,0,0,1.2695-4.7839.14274.14274,0,0,0-.2852-.0125,11.40051,11.40051,0,0,1-1.2376,4.6664,2.00835,2.00835,0,0,1-.8723.9878c-.06-.0434-.1281-.0982-.1866-.1402a38.75077,38.75077,0,0,0-5.7478-3.5122,7.89225,7.89225,0,0,0,.3719-2.3226,8.01823,8.01823,0,0,0-.0972-.8686l-.2038-1.3616a.14294.14294,0,0,0-.2827.0425l.2038,1.3616a5.66912,5.66912,0,0,1-.254,3.0208,19.53947,19.53947,0,0,0-4.6374-1.5417.1426.1426,0,0,0-.0542.28l.0027.0006a21.34609,21.34609,0,0,1,6.9288,2.7517,1.614,1.614,0,0,1-.2963.4348,9.87333,9.87333,0,0,1-2.3217,2.1415,6.5214,6.5214,0,0,1-1.0045.4658,9.89919,9.89919,0,0,1-3.1258.6258.14267.14267,0,0,0-.0234.2824.13838.13838,0,0,0,.0335.0028,10.19358,10.19358,0,0,0,3.216-.6438,6.84192,6.84192,0,0,0,1.0484-.4865,10.07915,10.07915,0,0,0,2.3917-2.2,2.01672,2.01672,0,0,0,.3235-.4754c1.1909.7149,2.316,1.483,3.3619,2.2342a20.83527,20.83527,0,0,1,2.4221,1.9736,23.50229,23.50229,0,0,1,1.595,1.7381,15.62785,15.62785,0,0,1-3.1718,1.8882,6.43624,6.43624,0,0,1-3.6477.4553.43.43,0,0,1-.0747-.0157.1426.1426,0,0,0-.0591.279c.025.0057.0507.0109.0758.016a6.62715,6.62715,0,0,0,3.8134-.4705,15.99253,15.99253,0,0,0,3.2462-1.9316,19.15995,19.15995,0,0,1,4.2707,9.1381.142.142,0,0,0,.1124.1184.13835.13835,0,0,0,.0498.001.14174.14174,0,0,0,.1194-.1621A18.55529,18.55529,0,0,0,32.3381,143.3288Z"/><path class="fd4c02bf-3268-4ce8-abf7-23dcfa9fc37d" d="M36.0978,149.5257c2.8552-2.3496,7.688-5.4476,6.7975-6.7901s-2.6095.7257-3.093-.3756.9741-2.0588,3.7159-3.5536,2.7371-4.4189,1.6053-5.3544-3.5476,3.4022-4.9603,2.8968,3.1143-3.4152,2.4083-6.3555-1.8342-3.5054-2.7727-1.4673-1.7184,3.345-2.7114,2.0091-1.1069-4.3558-3.1904-3.4584.8619,3.754-.8311,4.9555-3.8393-1.2435-4.8562-.5698.0083,3.2945,1.9073,3.9949,3.6358,1.1228,2.965,2.5257-2.4533-1.1483-4.0291-.5207,1.9307,4.673,4.0846,5.8098.9734,1.6667-.3814,1.2605c-2.3396-.7015-.9494,1.4388.7835,2.3895C35.3015,147.8888,34.3905,150.9307,36.0978,149.5257Z"/><path class="e04067bd-4fb8-4dfd-8d3a-681d91cfbbaf" d="M37.657,145.2298a1.06094,1.06094,0,0,0,.469-.0709c.0345-.0123.0684-.0239.1015-.0345.2409-.0767.4787-.1612.7069-.2523a6.0781,6.0781,0,0,0,1.4893-.7654.10729.10729,0,0,0-.1312-.1698,5.90852,5.90852,0,0,1-1.4375.7362c-.223.089-.4564.1719-.6926.2468-.0347.0111-.0705.0237-.1076.0366a.95457.95457,0,0,1-.3454.066,16.97624,16.97624,0,0,0,.3494-1.7364l.0038-.0056-.0016-.009a17.869,17.869,0,0,0,.1948-1.8994,14.24024,14.24024,0,0,0-.0734-1.9722,1.83978,1.83978,0,0,0,1.0251-.031,8.78141,8.78141,0,0,0,3.3177-1.6852.10727.10727,0,0,0-.1358-.1661,8.57177,8.57177,0,0,1-3.2359,1.6442,1.5097,1.5097,0,0,1-.9908.006c-.0056-.0554-.0091-.121-.0148-.1748a29.14408,29.14408,0,0,0-.9111-4.9817,5.931,5.931,0,0,0,1.4882-.9552,6.02222,6.02222,0,0,0,.4382-.4897l.6612-.7964a.10749.10749,0,0,0-.1655-.1372l-.6611.7965a5.68182,5.68182,0,0,1-.4221.4724,5.62308,5.62308,0,0,1-1.3985.8987,14.69482,14.69482,0,0,0-1.4593-3.372.10723.10723,0,0,0-.1841.11l.0011.0018a16.0486,16.0486,0,0,1,1.929,5.2626,1.21388,1.21388,0,0,1-.3922.0518,7.42658,7.42658,0,0,1-2.3636-.2285,4.89193,4.89193,0,0,1-.7644-.3297,7.44118,7.44118,0,0,1-1.9169-1.4386.10724.10724,0,0,0-.17.1283.09873.09873,0,0,0,.0152.0203,7.66205,7.66205,0,0,0,1.9722,1.48,5.12823,5.12823,0,0,0,.7979.344,7.57637,7.57637,0,0,0,2.4316.2384,1.51414,1.51414,0,0,0,.4285-.0569c.196,1.0258.3291,2.0413.432,3.004a15.64646,15.64646,0,0,1,.1073,2.3465,17.67924,17.67924,0,0,1-.1751,1.7649,11.75355,11.75355,0,0,1-2.6476-.8319,4.83918,4.83918,0,0,1-2.0829-1.8166.31907.31907,0,0,1-.0285-.0497.10726.10726,0,0,0-.1861.1067l.029.0504a4.98279,4.98279,0,0,0,2.1744,1.9019,12.02478,12.02478,0,0,0,2.7092.8519,14.40333,14.40333,0,0,1-2.9826,6.9723.10658.10658,0,0,0-.01.1223.1039.1039,0,0,0,.0243.0285.10675.10675,0,0,0,.1508-.0143A13.94986,13.94986,0,0,0,37.657,145.2298Z"/><path class="a2b02bd9-43ef-4162-9046-f9e01ffc6908" d="M176.219,115.869a4.19645,4.19645,0,0,1-2.6199.1813,6.51359,6.51359,0,0,1-2.7512-1.0125,18.42647,18.42647,0,0,0-3.3396,1.4955c2.3491-.302,4.8713,1.4784,5.1761,2.511a.85676.85676,0,0,1,.0357.2342l-.1412.0681c-1.7882.8629-6.5302-.3878-7.005-1.5318a21.933,21.933,0,0,0-5.2089,5.9172c2.9751-2.1705,8.0448-.401,8.4232.9441-1.6089,1.9561-8.4227,2.3433-9.5183,1.0347-.3603.6961-.6898,1.4159-.9961,2.1438a33.75827,33.75827,0,0,0-1.2743,3.6512c-.2371.7912-.4351,1.583-.6256,2.3905,2.5489-2.3323,6.7642-1.8524,9.1558-.7438a3.12208,3.12208,0,0,1,1.8252,1.498c-.7531.9242-2.4213,1.5551-4.257,1.9188a.32233.32233,0,0,0-.1249.0216,17.67455,17.67455,0,0,1-3.5876.3001,7.78569,7.78569,0,0,1-3.4733-.6253c-.0689.4586-.1532.9249-.2145,1.3992a46.31175,46.31175,0,0,0-.4138,6.7168,3.18244,3.18244,0,0,1-.3543.2677c-.1418.1071-.2834.2142-.4409.3289-.0268-1.4183.0167-2.851.1149-4.2907-.9801.4536-3.4609-.9601-5.5607-2.8671a16.817,16.817,0,0,1-1.8883-1.9896,6.14729,6.14729,0,0,1-1.5307-3.0517c1.0008-.8117,4.9527.1241,7.3802,2.5498a6.58718,6.58718,0,0,1,1.8119,2.9934c.1332-1.1666.3211-2.3403.5399-3.4901.1926-.9632.4162-1.9027.6787-2.8415a36.07005,36.07005,0,0,1,1.2451-3.7918.26186.26186,0,0,1,.0326-.093c-1.0131.0247-2.9589-1.2023-4.5267-2.7279a11.22274,11.22274,0,0,1-1.2123-1.3101,5.1185,5.1185,0,0,1-1.2192-2.4865c.5279-.4289,2.0834-.2513,3.6312.4716a7.46811,7.46811,0,0,1,1.8842,1.1795,5.45132,5.45132,0,0,1,2.0791,3.3866,26.31154,26.31154,0,0,1,4.3096-6.779c-1.7031-.203-5.6984-3.5933-5.8565-5.6443,1.0245-.8425,6.4988.9639,6.6236,4.8294a19.27085,19.27085,0,0,1,4.2447-3.2666c-1.0308-.3729-2.8386-1.9952-2.9255-3.0169.5674-.4673,3.5528.5095,3.6477,2.6298a17.57017,17.57017,0,0,1,2.7888-1.1137l-.0075-.0157a3.39422,3.39422,0,0,1,3.3371-.218C175.3268,114.5009,176.2412,115.3941,176.219,115.869Z"/><path class="be8e9b1e-795c-4e7e-83b1-9e856c00f536" d="M155.6976,137.6649c.0745.7956.102,1.6139.1062,2.4242a5.93846,5.93846,0,0,1,3.5816-3.1981,4.98856,4.98856,0,0,1,3.5876-.3001.13142.13142,0,0,1,.0615.0476l.0926.0714c-.2355,1.2353-1.8541,2.7706-3.5362,3.8531-1.565,1.0451-3.1941,1.6766-3.8199,1.3017-.0418.755-.0836,1.5101-.1643,2.2645a2.69336,2.69336,0,0,1-.3229.2525,3.18244,3.18244,0,0,1-.3543.2677,34.28262,34.28262,0,0,0,.2196-6.1977c-1.1522.498-3.9911.1854-6.1063-.6312a4.73355,4.73355,0,0,1-2.2919-1.5434.96849.96849,0,0,1,.4036-.4462,7.23482,7.23482,0,0,1,5.8495-.5019,4.69645,4.69645,0,0,1,2.0069,1.3135,27.90212,27.90212,0,0,0-1.4608-6.3537c-.9472.8825-6.0063.0168-7.0278-1.5789.3799-.9763,4.3262-1.8555,6.3644.0037a16.38748,16.38748,0,0,0-3.406-4.8543c-.448.8351-4.3039,1.3807-5.452.4843.0412-.7161,2.2725-2.0636,4.1357-1.6089a13.071,13.071,0,0,0-2.372-1.3888c-.8097.5261-3.2751.7874-4.0765.1686.033-.6929,2.6944-2.1511,4.2016-.7511a13.57218,13.57218,0,0,1,1.9869,1.0717c.2479-1.57,2.5451-2.0596,2.929-1.6648-.1353.7616-1.6381,1.8155-2.4353,2.0067a14.72547,14.72547,0,0,1,2.8975,2.7985,3.0925,3.0925,0,0,1,.2776-.9075,4.45011,4.45011,0,0,1,2.412-2.0149c1.1749-.4509,2.3204-.4815,2.666-.1261a2.99293,2.99293,0,0,1-.7818,1.3056,9.00692,9.00692,0,0,1-3.0839,2.1455,2.96615,2.96615,0,0,1-.993.2665,20.05967,20.05967,0,0,1,2.6579,5.4281,4.53629,4.53629,0,0,1,2.8292-2.8737,6.60606,6.60606,0,0,1,.9942-.3444,2.85248,2.85248,0,0,1,2.2732.1021c-.2343,1.1574-1.954,2.6834-3.5475,3.5491a7.5757,7.5757,0,0,1-.965.485,2.57648,2.57648,0,0,1-1.2343.2475,23.147,23.147,0,0,1,.5556,2.594C155.5141,135.7616,155.6253,136.7135,155.6976,137.6649Z"/><path class="fd4c02bf-3268-4ce8-abf7-23dcfa9fc37d" d="M171.689,101.4491a5.494,5.494,0,0,0,1.6142,3.0354,8.52692,8.52692,0,0,0,3.0309,2.3541,24.12564,24.12564,0,0,1,.6532,4.7454c-1.2924-2.8182-5.0176-4.3859-6.3756-4.0089a1.12321,1.12321,0,0,0-.2849.1226l.0222.2041c.2807,2.584,4.9558,6.9842,6.5553,6.7187a28.71336,28.71336,0,0,1-2.9625,9.8857c.3491-4.8085-5.1292-9.2131-6.8854-8.7012-1.0577,3.1424,3.2338,10.9786,5.4464,11.2886-.5234.8825-1.0945,1.7473-1.6908,2.5918a44.19027,44.19027,0,0,1-3.1722,3.9455c-.7145.8115-1.4567,1.5802-2.2215,2.3513.8241-4.4471-2.6299-8.7964-5.5184-10.6844a4.08677,4.08677,0,0,0-2.9285-.9892c-.5046,1.4768-.0494,3.7668.8187,6.0576a.42359.42359,0,0,1,.0626.1538,23.13749,23.13749,0,0,0,2.1526,4.1925,10.19337,10.19337,0,0,0,3.1013,3.4245c-.4616.3942-.921.811-1.4054,1.2077a60.62866,60.62866,0,0,1-7.1734,5.114,4.17618,4.17618,0,0,0-.0518.5789c-.0207.2317-.0415.4633-.0597.7177,1.5937-.953,3.1548-1.9942,4.6858-3.1008.1754,1.4029,3.4646,3.1785,7.0376,4.1893a22.01348,22.01348,0,0,0,3.5183.7186,8.04735,8.04735,0,0,0,4.4501-.4146c.208-1.674-3.5697-5.4148-7.9459-6.43a8.62457,8.62457,0,0,0-4.5803.0618c1.2034-.9563,2.3768-1.9783,3.5022-3.018.9364-.8815,1.8248-1.7808,2.6857-2.7229a47.215,47.215,0,0,0,3.3486-4.0104.34442.34442,0,0,0,.0808-.1006c.6745,1.1423,3.3856,2.4533,6.1664,3.1374a14.68089,14.68089,0,0,0,2.2952.4386,6.70049,6.70049,0,0,0,3.6065-.3689c.1105-.8835-1.1646-2.488-3.0401-3.7062a9.77687,9.77687,0,0,0-2.6155-1.2754,7.136,7.136,0,0,0-5.2022.0376,34.43927,34.43927,0,0,0,4.5429-9.4841c1.4057,1.751,7.9397,3.8391,10.3272,2.5935.2259-1.7217-5.5739-6.5501-9.9536-4.0101a25.22931,25.22931,0,0,0,.6868-6.978c1.1284.8865,4.1829,1.7701,5.3779,1.1588.1258-.9541-3.0278-3.593-5.4484-2.2292a23.00957,23.00957,0,0,0-.6956-3.8692l.0227-.0024a4.44343,4.44343,0,0,0-2.0704-3.8576C173.8268,101.492,172.2012,101.0953,171.689,101.4491Z"/><path class="f17e27b0-2840-4e09-82c7-5c73b9142bb8" d="M161.7012,139.3447c-.9352.4685-1.8631,1.0051-2.766,1.5619a7.774,7.774,0,0,0,1.0701-6.1941c-.3828-2.0454-1.3252-3.7548-2.1526-4.1925a.17283.17283,0,0,0-.0956-.0354l-.1434-.0533c-1.2088,1.1175-1.7924,3.9791-1.8291,6.5975-.0764,2.4624.3511,4.7094,1.2012,5.1447-.8097.5695-1.6193,1.1391-2.4014,1.7515a3.54856,3.54856,0,0,0-.0566.5337,4.17618,4.17618,0,0,0-.0518.5789,44.88237,44.88237,0,0,1,6.7314-4.5384c.2454,1.6247,2.5597,4.5611,4.9323,6.3446a6.19694,6.19694,0,0,0,3.3024,1.476,1.26745,1.26745,0,0,0,.2159-.7574c.14-1.6664-1.1385-4.9907-3.4958-6.8446a6.14941,6.14941,0,0,0-2.8496-1.3189,36.52136,36.52136,0,0,1,8.0691-2.7802c-.3238,1.6636,4.1433,6.6827,6.6235,6.7114.821-1.0983-.937-6.0907-4.4143-7.0661a21.451,21.451,0,0,1,7.7516.4192c-.617,1.0762,1.4489,5.7369,3.2401,6.3909.7668-.5419.7172-3.9539-1.0789-5.7082a17.10694,17.10694,0,0,1,3.1862,1.6721c-.0233,1.2639,1.3948,4.1832,2.6375,4.6445.7466-.5169.522-4.4832-2.0772-5.187a17.75636,17.75636,0,0,0-2.5672-1.4642c1.572-1.3633.524-4.2539-.1806-4.4068-.7521.678-.8813,3.0774-.5413,4.0954a19.27384,19.27384,0,0,0-5.1159-1.279,4.04689,4.04689,0,0,0,.8156-.9372,5.82466,5.82466,0,0,0,.5664-4.0751c-.3133-1.6174-1.0731-2.9109-1.7073-3.0484a3.91847,3.91847,0,0,0-.9082,1.773,11.79185,11.79185,0,0,0-.2461,4.9119,3.88836,3.88836,0,0,0,.3921,1.2875,26.26272,26.26272,0,0,0-7.8705.8093,5.9382,5.9382,0,0,0,1.2312-5.1336,8.65633,8.65633,0,0,0-.3064-1.3429c-.4425-1.3279-1.1249-2.3318-1.6886-2.454-1.1231,1.0623-1.6264,4.0298-1.4836,6.3995a9.888,9.888,0,0,0,.13,1.4078,3.37058,3.37058,0,0,0,.5804,1.5424,30.29594,30.29594,0,0,0-3.2661,1.1805C163.9423,138.2297,162.808,138.7657,161.7012,139.3447Z"/><path class="f5c07a76-e93b-4f67-96a7-1d55a8e02ecc" d="M158.5764,55.1332v85.5047c0,3.6311-4.8581,7.9132-8.4891,7.9132h-.0251l-20.6218-.7137-18.6059-.6386a6.56084,6.56084,0,0,1-6.1477-4.2696v-.025a6.49551,6.49551,0,0,1-.4132-2.2663l-.0251-.6636v-.0125l-.2128-7.5125-.7012-23.7019-1.5902-53.3388c0-3.0425,3.8565-5.797,7.2371-6.5984a7.60453,7.60453,0,0,1,1.8531-.2379h41.181A6.5513,6.5513,0,0,1,158.5764,55.1332Z"/><path class="fd4c02bf-3268-4ce8-abf7-23dcfa9fc37d" d="M155.947,56.5105v85.5297a6.54462,6.54462,0,0,1-5.8597,6.5109h-.0251a5.80027,5.80027,0,0,1-.6761.0376h-41.181a6.54864,6.54864,0,0,1-6.5609-6.5485V56.5105a6.44157,6.44157,0,0,1,.1001-1.1019,6.53218,6.53218,0,0,1,6.4608-5.4339h41.181A6.53792,6.53792,0,0,1,155.947,56.5105Z"/><path class="f0aa8bd6-0e16-4eec-b87a-619aa2a7cd1e" d="M154.2883,61.9881v74.5812a6.7893,6.7893,0,0,1-6.7826,6.7826H110.1123a6.78052,6.78052,0,0,1-6.7826-6.7826V61.9881a6.78052,6.78052,0,0,1,6.7826-6.7826h37.3934A6.7893,6.7893,0,0,1,154.2883,61.9881Z"/><path class="a281e01d-5fa1-449a-ab40-8c8289ab8c0e" d="M140.1939,52.5876a1.46465,1.46465,0,1,1-1.4647-1.4646A1.46465,1.46465,0,0,1,140.1939,52.5876Z"/><path class="beee69ef-3d08-42e4-972f-e7e184555f39" d="M154.2883,61.9881V91.9579a18.36885,18.36885,0,0,1-14.127,6.6044H103.3297V61.9881a6.78052,6.78052,0,0,1,6.7826-6.7826h37.3934A6.7893,6.7893,0,0,1,154.2883,61.9881Z"/><path class="a281e01d-5fa1-449a-ab40-8c8289ab8c0e" d="M140.2008,76.8839A11.39175,11.39175,0,1,1,128.809,65.4921,11.28975,11.28975,0,0,1,140.2008,76.8839Z"/><path class="f5c07a76-e93b-4f67-96a7-1d55a8e02ecc" d="M136.2224,83.7602a10.9548,10.9548,0,0,1-14.8429,0,6.53446,6.53446,0,0,1,4.5167-5.2332,6.08184,6.08184,0,1,1,9.0024-5.3577,5.99,5.99,0,0,1-3.1929,5.2954A6.68351,6.68351,0,0,1,136.2224,83.7602Z"/><path class="f5c07a76-e93b-4f67-96a7-1d55a8e02ecc" d="M112.4025,110.5032v-.7859a2.70767,2.70767,0,0,1-1.3129-.3567l.2188-.7619a2.55475,2.55475,0,0,0,1.2643.3567c.5105,0,.8589-.2514.8589-.6401,0-.3649-.2834-.5998-.8833-.8186-.8509-.3081-1.4019-.6972-1.4019-1.4507a1.41181,1.41181,0,0,1,1.3046-1.3779v-.7942h.6645v.7539a2.59086,2.59086,0,0,1,1.1185.2673l-.2187.7457a2.41027,2.41027,0,0,0-1.1024-.2755c-.5672,0-.7697.2916-.7697.5671,0,.3323.2916.5187.9806.7942.9076.3405,1.3128.778,1.3128,1.4993a1.47718,1.47718,0,0,1-1.3696,1.4425v.8348Z"/><path class="f5c07a76-e93b-4f67-96a7-1d55a8e02ecc" d="M120.1856,105.2435a3.99333,3.99333,0,0,0-.5104.0244,1.86713,1.86713,0,0,0-1.7669,1.5399h.0244a1.51606,1.51606,0,0,1,1.1832-.5108,1.58709,1.58709,0,0,1,1.6128,1.7184,1.83038,1.83038,0,0,1-1.856,1.88,2.00684,2.00684,0,0,1-1.9856-2.269,3.22534,3.22534,0,0,1,.916-2.3667,3.04966,3.04966,0,0,1,1.8721-.778,2.85915,2.85915,0,0,1,.5021-.0162Zm-.4702,2.8286a.92354.92354,0,0,0-.9156-1.0455.96874.96874,0,0,0-.8592.543.68056.68056,0,0,0-.0646.3161c.0161.6969.3484,1.2641.9885,1.2641C119.3832,109.1498,119.7154,108.704,119.7154,108.0721Z"/><path class="f5c07a76-e93b-4f67-96a7-1d55a8e02ecc" d="M121.3226,109.8063v-.6077l.6239-.5754c1.2403-1.1509,1.8236-1.7831,1.8319-2.4799a.82947.82947,0,0,0-.9404-.8836,1.91859,1.91859,0,0,0-1.1264.4378l-.2917-.7051a2.6075,2.6075,0,0,1,1.6207-.5431,1.56245,1.56245,0,0,1,1.7345,1.5967c0,.9238-.6645,1.6695-1.5804,2.5204l-.4619.3969v.0165h2.1638v.8265Z"/><path class="f5c07a76-e93b-4f67-96a7-1d55a8e02ecc" d="M125.5961,108.4529a1.45521,1.45521,0,0,1,.9888-1.3696v-.0244a1.28423,1.28423,0,0,1-.8024-1.167,1.5684,1.5684,0,0,1,1.7586-1.4426c1.1347,0,1.6533.6807,1.6533,1.3291a1.31712,1.31712,0,0,1-.8103,1.1914v.0244a1.41524,1.41524,0,0,1,1.0047,1.329c0,.9401-.7942,1.5722-1.9206,1.5722C126.2365,109.8954,125.5961,109.1903,125.5961,108.4529Zm2.7797-.0485c0-.5348-.3972-.8268-.9806-.9888a.963.963,0,0,0-.778.9238.82927.82927,0,0,0,.8833.8509A.79673.79673,0,0,0,128.3758,108.4044Zm-1.6451-2.5531c0,.4296.3567.6889.8592.8268a.85453.85453,0,0,0,.6563-.7942.70563.70563,0,0,0-.7536-.7456A.69832.69832,0,0,0,126.7307,105.8513Z"/><path class="f5c07a76-e93b-4f67-96a7-1d55a8e02ecc" d="M130.4202,109.0933a2.63434,2.63434,0,0,0,.5513-.0165,1.9869,1.9869,0,0,0,1.0697-.4051,1.94909,1.94909,0,0,0,.6728-1.1671l-.0165-.0079a1.457,1.457,0,0,1-1.1509.4699,1.55567,1.55567,0,0,1-1.5962-1.6369,1.86646,1.86646,0,0,1,1.9044-1.8804c1.2238,0,1.88.9645,1.88,2.245a3.25646,3.25646,0,0,1-.9156,2.4475,2.8999,2.8999,0,0,1-1.7992.7213,3.91245,3.91245,0,0,1-.5998.0162Zm.5187-2.8203a.87489.87489,0,0,0,.8671.9644.95976.95976,0,0,0,.8512-.4379.59574.59574,0,0,0,.0568-.2834c.0079-.7133-.2594-1.3293-.908-1.3293C131.3038,105.1868,130.9389,105.6325,130.9389,106.273Z"/><path class="f5c07a76-e93b-4f67-96a7-1d55a8e02ecc" d="M134.078,110.7869a13.12889,13.12889,0,0,0,.5427-2.1393l1.0456-.0812a10.33515,10.33515,0,0,1-.9076,2.1559Z"/><path class="f5c07a76-e93b-4f67-96a7-1d55a8e02ecc" d="M139.9949,107.1401c0,1.6939-.6645,2.7553-1.9206,2.7553-1.2155,0-1.8639-1.102-1.8721-2.7068,0-1.6369.6968-2.7393,1.9288-2.7393C139.4033,104.4493,139.9949,105.584,139.9949,107.1401Zm-2.7877.0485c-.0083,1.2805.3484,1.945.8994,1.945.5837,0,.8915-.713.8915-1.9774,0-1.2238-.2916-1.945-.8915-1.945C137.5718,105.2112,137.1989,105.8678,137.2072,107.1886Z"/><path class="f5c07a76-e93b-4f67-96a7-1d55a8e02ecc" d="M144.341,107.1401c0,1.6939-.6646,2.7553-1.9207,2.7553-1.2155,0-1.8638-1.102-1.8721-2.7068,0-1.6369.6969-2.7393,1.9289-2.7393C143.7494,104.4493,144.341,105.584,144.341,107.1401Zm-2.7878.0485c-.0082,1.2805.3485,1.945.8995,1.945.5836,0,.8915-.713.8915-1.9774,0-1.2238-.2917-1.945-.8915-1.945C141.9178,105.2112,141.545,105.8678,141.5532,107.1886Z"/><path class="f5c07a76-e93b-4f67-96a7-1d55a8e02ecc" d="M140.2657,118.315H113.522a1.32122,1.32122,0,0,1-1.3213-1.3213h0a1.32128,1.32128,0,0,1,1.3213-1.3213h26.7437a1.32134,1.32134,0,0,1,1.3213,1.3213h0A1.32128,1.32128,0,0,1,140.2657,118.315Z"/><path class="f5c07a76-e93b-4f67-96a7-1d55a8e02ecc" d="M136.4314,123.0688H117.3562a.69776.69776,0,0,1-.6977-.6978h0a.69774.69774,0,0,1,.6977-.6977h19.0752a.69776.69776,0,0,1,.6978.6977h0A.69778.69778,0,0,1,136.4314,123.0688Z"/><path class="fd4c02bf-3268-4ce8-abf7-23dcfa9fc37d" d="M133.4091,136.813H120.3786a2.97288,2.97288,0,0,1-2.9729-2.9729h0a2.97288,2.97288,0,0,1,2.9729-2.9729h13.0305a2.97288,2.97288,0,0,1,2.9729,2.9729h0A2.97288,2.97288,0,0,1,133.4091,136.813Z"/><path class="bcd3d5fd-1af7-4c76-ab46-50b173db247b" d="M158.5764,55.1332v7.5751a21.90655,21.90655,0,0,0-2.5918.9015c-.0126,0-.0251.0125-.0376.0125q-.8451.3756-1.6527.7888c-7.9007,4.2571-12.2329,13.3598-15.5509,21.8739a50.07992,50.07992,0,0,1-4.9833,10.53c-.4132.6011-.8639,1.1895-1.3397,1.753a14.67663,14.67663,0,0,1-7.8381,5.0334c-4.1068.8889-8.3764-.526-12.1327-2.4291a5.1538,5.1538,0,0,1-1.9407-1.4399,3.34746,3.34746,0,0,1-.5133-1.1644c-.0751-.263-.1253-.551-.1753-.8265-1.2145-7.7253,3.4557-14.9748,6.5985-22.1242a60.86089,60.86089,0,0,0,4.9832-20.409c.1128-1.7404.1503-3.4932.1252-5.2336-.0124-.4633-.025-.9266-.05-1.4024h30.5383A6.5513,6.5513,0,0,1,158.5764,55.1332Z"/><path class="b4edd0fa-b5e3-423e-b38c-0c714b45e6bb" d="M158.5764,101.7357v38.9022c0,3.6311-4.8581,7.9132-8.4891,7.9132h-.0251a5.80027,5.80027,0,0,1-.6761.0376h-41.181a6.54864,6.54864,0,0,1-6.5609-6.5485v-9.0525c.5634-.1377,1.1269-.263,1.6903-.3881a6.98916,6.98916,0,0,1,.7012-.1503c2.0909-.4758,4.1944-.889,6.2604-1.3523,8.1385-1.7779,16.878-4.8079,21.1477-11.9699,2.0283-3.4056,2.8421-7.4623,5.0709-10.7429,4.8205-7.1118,11.3063-9.0023,17.7796-7.8379.5509.0876,1.1018.2128,1.6527.3505A22.12578,22.12578,0,0,1,158.5764,101.7357Z"/><path class="f83f80ce-5d9a-4df4-8576-ba3a93b07010" d="M97.6426,105.2044H91.0767c-.3559.5706-.6775,1.1591-1.0022,1.746H86.5187c-.3561.5706-.6776,1.1592-1.0023,1.7461H81.9606a45.74863,45.74863,0,0,0-4.6395,10.2584c-.1606.4966-.313.9932-.4656,1.4898-.1846.6326-.3611,1.272-.5217,1.9115-.1364.483-.2568.9728-.3693,1.4694-.0981.3875-.1728.7833-.2635,1.1734-3.4674,1.1852-6.9437,3.873-6.9437,6.4752l.0037.0142a5.357,5.357,0,0,0-.0746.8438v11.8569c0,3.4694,3.3231,6.2857,7.4168,6.2857h24.899c.2261,0,.4488-.0118.6698-.0286l.0373.0027c4.0991,0,9.6649-4.4602,9.6649-7.9342V130.6632c0-2.8302-2.2059-5.2229-5.2396-6.0128.0219-.1007.0425-.2027.0646-.3034.2648-1.2109.5378-2.4149.8186-3.585.0321-.1225.0563-.2381.0884-.3605.2328-.9864.4816-1.9524.7304-2.8843q.40935-1.5204.8428-2.9388c.0401-.136.0803-.2653.1124-.3946.3692-1.1428.7385-2.238,1.1318-3.2584a32.64311,32.64311,0,0,1,1.6053-3.6462c.0643-.1156.1204-.2313.1846-.3469.3292-.6259.6663-1.1905,1.0194-1.7279Z"/><path class="fe8e4f8d-61cc-44b0-b950-1703d13a7686" d="M97.2126,154.9067l-22.6573-1.9399a7.422,7.422,0,0,1-7.4221-7.422l-2.8726-13.0273c0-4.0991,6.1956-8.3791,10.2947-8.3791H99.4555a7.422,7.422,0,0,1,7.422,7.4221v13.9843C106.8775,149.6439,101.3117,154.9067,97.2126,154.9067Z"/><path class="e2a13dde-5f54-437f-88d3-e6d8c319d78e" d="M108.2362,101.5204c-.3532.6341-.6903,1.3003-1.0194,2.0388-.0642.1364-.1204.2729-.1846.4094a42.3497,42.3497,0,0,0-1.6054,4.3023c-.3933,1.204-.7625,2.4963-1.1317,3.8448-.0322.1525-.0723.305-.1124.4656q-.4335,1.67355-.8428,3.4676c-.2488,1.0996-.4977,2.2394-.7305,3.4033-.0321.1445-.0562.2809-.0882.4254-.281,1.3806-.5539,2.8014-.8188,4.2301-.1204.6502-.2408,1.3004-.3532,1.9586-.2247,1.2763-.4495,2.5685-.6662,3.8689-.0401.2729-.0963.5458-.1365.8187-.1203.7465-.2488,1.493-.3692,2.2475-.2247,1.3485-.4414,2.705-.6582,4.0696H77.8629c.5618-4.503,1.1478-9.0061,1.9024-13.3967.2488-1.4448.5136-2.8816.8187-4.3023.1123-.586.2328-1.1639.3692-1.7338.1605-.7546.3371-1.5091.5218-2.2556.1525-.5859.3049-1.1719.4655-1.7578A59.12235,59.12235,0,0,1,86.58,101.5204Z"/><path class="e1c598bb-2a7a-41ab-aa96-20f998a34115" d="M91.6161,102.92h10.0703a2.78564,2.78564,0,0,0,2.8601,3.5997c-3.4981,7.325-4.584,14.6971-6.0602,24.7124a4.99135,4.99135,0,0,0-4.6257,3.5998H83.7903a2.78573,2.78573,0,0,0-2.8602-3.5998c.6091-8.6437,2.9473-20.6894,6.0603-24.7124A4.99126,4.99126,0,0,0,91.6161,102.92Z"/><path class="e2a13dde-5f54-437f-88d3-e6d8c319d78e" d="M93.2461,111.9584a4.7746,4.7746,0,0,1,4.9058,6.1742,8.55237,8.55237,0,0,1-7.934,6.1743,4.77464,4.77464,0,0,1-4.9058-6.1743A8.55231,8.55231,0,0,1,93.2461,111.9584Z"/><path class="a94c8b85-d5b2-4a9b-94f5-deedfcdbbbb0" d="M94.9037,117.7024a1.42075,1.42075,0,0,0-1.4367-1.7178,1.92436,1.92436,0,0,0-1.0596.281,3.82575,3.82575,0,0,0-1.204,1.3324c-.5217.8188-.8107,1.1559-1.1398,1.1559a.30207.30207,0,0,1-.0883-.008c-.2408-.0402-.4174-.2649-.2729-.8268a3.50984,3.50984,0,0,1,.2087-.602,4.78831,4.78831,0,0,1,.4736-.7786l-.9873-.2649-.0723-.016a.34274.34274,0,0,0-.0401.0562,3.82414,3.82414,0,0,0-.5619,1.1076.98714.98714,0,0,0-.0722.2328h-.883l-.2327.9472h.9471c-.0401.9632.4335,1.5491,1.2281,1.6053a.51841.51841,0,0,0,.1605.0161,2.58425,2.58425,0,0,0,2.1031-1.493c.0561-.0803.0963-.1605.1525-.2408.4254-.7144.7385-1.0194,1.1237-1.0194.4014,0,.5298.3773.3933.9311a4.33449,4.33449,0,0,1-.8347,1.5893l1.0996.2889a4.59912,4.59912,0,0,0,.8348-1.6374h.9472l.1685-.6662.0643-.2729Z"/><path class="b0cc4c5f-ac05-40b7-9369-0a92d17b718e" d="M108.2362,101.5204c-.3532.6341-.6903,1.3003-1.0194,2.0388-.0642.1364-.1204.2729-.1846.4094-1.7177.2729-3.5398.5217-4.8241,1.5572a3.88973,3.88973,0,0,0-.5539.5378,7.04145,7.04145,0,0,0-1.0595,1.8862,13.63313,13.63313,0,0,0-1.3083,6.3573,6.93216,6.93216,0,0,0,1.4448,3.6762,4.873,4.873,0,0,0,1.8782,1.4689c-.0321.1445-.0562.2809-.0882.4254-.281,1.3806-.5539,2.8014-.8188,4.2301-.1204.6502-.2408,1.3004-.3532,1.9586-.2247,1.2763-.4495,2.5685-.6662,3.8689-.0401.2729-.0963.5458-.1365.8187-.1203.7465-.2488,1.493-.3692,2.2475-.2247,1.3485-.4414,2.705-.6582,4.0696H77.8629c.5618-4.503,1.1478-9.0061,1.9024-13.3967.2488-1.4448.5136-2.8816.8187-4.3023.1123-.586.2328-1.1639.3692-1.7338a9.889,9.889,0,0,1,1.0836-.3211c.3211-.0722.6502-.1365.9793-.1766.899-.1364,1.8141-.1926,2.7291-.2569h.008c.6421-.0401,1.2682-.0963,1.9023-.1926a9.76724,9.76724,0,0,0,1.6295-.3772.31844.31844,0,0,0,.1124-.0402,5.56066,5.56066,0,0,0,3.0822-2.1913,4.95124,4.95124,0,0,0,.7305-2.1271c.2649-2.2555-.6582-4.808-.6743-7.1839a9.37629,9.37629,0,0,1,.6101-3.2509Z"/><path class="e2a13dde-5f54-437f-88d3-e6d8c319d78e" d="M103.6781,103.5806c-.3531.6342-.6902,1.3004-1.0194,2.0389-.0641.1364-.1203.2729-.1846.4094a42.31748,42.31748,0,0,0-1.6053,4.3023c-.3933,1.204-.7626,2.4963-1.1318,3.8448-.0321.1525-.0722.305-.1124.4656q-.43335,1.67355-.8428,3.4675c-.2488,1.0997-.4976,2.2395-.7304,3.4034-.0321.1445-.0562.2809-.0883.4254-.2809,1.3806-.5539,2.8014-.8188,4.2301-.1203.6502-.2408,1.3003-.3531,1.9585-.2248,1.2763-.4495,2.5686-.6662,3.869-.0402.2729-.0963.5458-.1365.8187-.1204.7465-.2488,1.493-.3692,2.2475-.2248,1.3485-.4415,2.705-.6582,4.0696H73.3049c.5618-4.503,1.1478-9.0061,1.9023-13.3967.2488-1.4448.5137-2.8817.8187-4.3024.1124-.5859.2328-1.1639.3692-1.7338.1606-.7545.3372-1.509.5218-2.2555.1525-.5859.305-1.1719.4655-1.7579a59.12679,59.12679,0,0,1,4.6395-12.1044Z"/><path class="e1c598bb-2a7a-41ab-aa96-20f998a34115" d="M87.058,104.9802H97.1284a2.78567,2.78567,0,0,0,2.8601,3.5998c-3.4982,7.3249-4.5841,14.697-6.0603,24.7124a4.99145,4.99145,0,0,0-4.6257,3.5998H79.2322a2.78569,2.78569,0,0,0-2.8602-3.5998c.6091-8.6437,2.9474-20.6894,6.0603-24.7124A4.99125,4.99125,0,0,0,87.058,104.9802Z"/><path class="e2a13dde-5f54-437f-88d3-e6d8c319d78e" d="M88.688,114.0187a4.7746,4.7746,0,0,1,4.9058,6.1742,8.55228,8.55228,0,0,1-7.934,6.1743,4.77455,4.77455,0,0,1-4.9057-6.1743A8.55219,8.55219,0,0,1,88.688,114.0187Z"/><path class="a94c8b85-d5b2-4a9b-94f5-deedfcdbbbb0" d="M90.3457,119.7627a1.42082,1.42082,0,0,0-1.4368-1.7178,1.92479,1.92479,0,0,0-1.0595.2809,3.82525,3.82525,0,0,0-1.204,1.3325c-.5218.8188-.8108,1.1559-1.1399,1.1559a.29847.29847,0,0,1-.0883-.0081c-.2408-.0401-.4174-.2649-.2729-.8267a3.51841,3.51841,0,0,1,.2087-.602,4.79548,4.79548,0,0,1,.4736-.7786l-.9873-.2649-.0722-.0161a.34112.34112,0,0,0-.0402.0562,3.82626,3.82626,0,0,0-.5618,1.1077.99185.99185,0,0,0-.0723.2328h-.8829l-.2328.9472h.9472c-.0402.9632.4334,1.5491,1.228,1.6053a.51906.51906,0,0,0,.1606.0161,2.58411,2.58411,0,0,0,2.103-1.493c.0562-.0803.0963-.1605.1525-.2408.4254-.7144.7385-1.0195,1.1238-1.0195.4013,0,.5297.3773.3933.9312a4.33542,4.33542,0,0,1-.8348,1.5893l1.0997.2889a4.59993,4.59993,0,0,0,.8347-1.6374h.9472l.1686-.6663.0642-.2728Z"/><path class="f1d0143c-3bfe-4e43-8c54-9ed727a8c664" d="M103.6781,103.5806c-.3531.6342-.6902,1.3004-1.0194,2.0389-.0641.1364-.1203.2729-.1846.4094-1.7177.2728-3.5398.5217-4.8241,1.5571a3.89976,3.89976,0,0,0-.5538.5378,7.04114,7.04114,0,0,0-1.0596,1.8863,13.63546,13.63546,0,0,0-1.3083,6.3572,6.93328,6.93328,0,0,0,1.4448,3.6763,4.87333,4.87333,0,0,0,1.8783,1.4689c-.0321.1445-.0562.2809-.0883.4254-.2809,1.3806-.5539,2.8014-.8188,4.2301-.1203.6502-.2408,1.3003-.3531,1.9585-.2248,1.2763-.4495,2.5686-.6662,3.869-.0402.2729-.0963.5458-.1365.8187-.1204.7465-.2488,1.493-.3692,2.2475-.2248,1.3485-.4415,2.705-.6582,4.0696H73.3049c.5618-4.503,1.1478-9.0061,1.9023-13.3967.2488-1.4448.5137-2.8817.8187-4.3024.1124-.5859.2328-1.1639.3692-1.7338a9.91061,9.91061,0,0,1,1.0836-.321c.3211-.0723.6502-.1365.9793-.1766.899-.1365,1.8141-.1927,2.7291-.2569h.008c.6422-.0401,1.2683-.0963,1.9024-.1926a9.76647,9.76647,0,0,0,1.6294-.3773.31488.31488,0,0,0,.1124-.0401,5.56138,5.56138,0,0,0,3.0823-2.1913,4.95285,4.95285,0,0,0,.7304-2.1271c.2649-2.2556-.6582-4.8081-.6742-7.184a9.37345,9.37345,0,0,1,.61-3.2509Z"/><path class="e2a13dde-5f54-437f-88d3-e6d8c319d78e" d="M99.1201,105.6409c-.3532.6342-.6903,1.3004-1.0194,2.0389-.0642.1364-.1204.2728-.1846.4093a42.34292,42.34292,0,0,0-1.6054,4.3024c-.3933,1.204-.7625,2.4963-1.1317,3.8448-.0322.1525-.0723.305-.1124.4655q-.4335,1.6737-.8428,3.4676c-.2489,1.0997-.4977,2.2395-.7305,3.4034-.0321.1444-.0562.2809-.0883.4254-.2809,1.3806-.5538,2.8013-.8187,4.2301-.1204.6501-.2408,1.3003-.3532,1.9585-.2247,1.2763-.4495,2.5686-.6662,3.8689-.0402.273-.0963.5458-.1365.8188-.1204.7465-.2488,1.4929-.3692,2.2475-.2248,1.3485-.4414,2.705-.6582,4.0695H68.7468c.5618-4.503,1.1478-9.006,1.9023-13.3966.2489-1.4449.5137-2.8817.8187-4.3024.1124-.586.2328-1.1639.3693-1.7338.1605-.7545.3371-1.509.5217-2.2555.1525-.586.305-1.1719.4656-1.7579a59.121,59.121,0,0,1,4.6395-12.1044Z"/><path class="e1c598bb-2a7a-41ab-aa96-20f998a34115" d="M82.5,107.0405H92.5703a2.78571,2.78571,0,0,0,2.8601,3.5998c-3.4982,7.3249-4.5841,14.697-6.0603,24.7124a4.99126,4.99126,0,0,0-4.6256,3.5997H74.6742a2.78569,2.78569,0,0,0-2.8602-3.5997c.609-8.6437,2.9473-20.6894,6.0602-24.7124A4.99138,4.99138,0,0,0,82.5,107.0405Z"/><path class="e2a13dde-5f54-437f-88d3-e6d8c319d78e" d="M84.13,116.0789a4.77455,4.77455,0,0,1,4.9057,6.1743,8.55231,8.55231,0,0,1-7.934,6.1742,4.77454,4.77454,0,0,1-4.9057-6.1742A8.55228,8.55228,0,0,1,84.13,116.0789Z"/><path class="f5c07a76-e93b-4f67-96a7-1d55a8e02ecc" d="M85.7876,121.8229a1.42074,1.42074,0,0,0-1.4368-1.7177,1.924,1.924,0,0,0-1.0595.2809,3.82525,3.82525,0,0,0-1.204,1.3325c-.5218.8187-.8107,1.1558-1.1398,1.1558a.30207.30207,0,0,1-.0883-.008c-.2408-.0401-.4174-.2649-.2729-.8267a3.507,3.507,0,0,1,.2086-.602,4.80456,4.80456,0,0,1,.4736-.7787l-.9872-.2649-.0723-.016a.3312.3312,0,0,0-.0401.0562,3.82238,3.82238,0,0,0-.5619,1.1077.98568.98568,0,0,0-.0722.2328h-.883l-.2328.9471h.9472c-.0401.9632.4334,1.5492,1.2281,1.6054a.5212.5212,0,0,0,.1605.016,2.584,2.584,0,0,0,2.103-1.493c.0562-.0802.0963-.1605.1525-.2408.4255-.7144.7385-1.0194,1.1238-1.0194.4013,0,.5298.3773.3933.9312a4.33345,4.33345,0,0,1-.8348,1.5892l1.0997.289a4.60051,4.60051,0,0,0,.8348-1.6375h.9471l.1686-.6662.0642-.2729Z"/><path class="b941bc7a-2541-43e5-badf-903c03bbfa4d" d="M99.1201,105.6409c-.3532.6342-.6903,1.3004-1.0194,2.0389-.0642.1364-.1204.2728-.1846.4093-1.7178.2729-3.5398.5217-4.8241,1.5572a3.88973,3.88973,0,0,0-.5539.5378,7.04082,7.04082,0,0,0-1.0595,1.8863,13.63247,13.63247,0,0,0-1.3083,6.3572,6.93135,6.93135,0,0,0,1.4448,3.6762,4.87232,4.87232,0,0,0,1.8782,1.469c-.0321.1444-.0562.2809-.0883.4254-.2809,1.3806-.5538,2.8013-.8187,4.2301-.1204.6501-.2408,1.3003-.3532,1.9585-.2247,1.2763-.4495,2.5686-.6662,3.8689-.0402.273-.0963.5458-.1365.8188-.1204.7465-.2488,1.4929-.3692,2.2475-.2248,1.3485-.4414,2.705-.6582,4.0695H68.7468c.5618-4.503,1.1478-9.006,1.9023-13.3966.2489-1.4449.5137-2.8817.8187-4.3024.1124-.586.2328-1.1639.3693-1.7338a9.8886,9.8886,0,0,1,1.0836-.321c.3211-.0723.6501-.1365.9793-.1767.899-.1364,1.814-.1926,2.729-.2568h.0081c.6421-.0401,1.2682-.0963,1.9023-.1927.5458-.0802,1.3493.721,1.8871.5445.0401-.0081.5036-.4198-.1452-.9619a5.56053,5.56053,0,0,0,3.0822-2.1913,4.95079,4.95079,0,0,0,.7305-2.1271c.2648-2.2555-.6582-4.808-.6743-7.1839a8.0018,8.0018,0,0,1,.2007-1.8542,7.91866,7.91866,0,0,1,.4094-1.3967Z"/><path class="a1a3495b-ba33-4363-9468-01342b925f9f" d="M103.9303,133.5298v13.9907a7.42169,7.42169,0,0,1-7.4248,7.4168H71.6064a7.42,7.42,0,0,1-7.4167-7.4168V133.5298a7.41994,7.41994,0,0,1,7.4167-7.4167H96.5055A7.42167,7.42167,0,0,1,103.9303,133.5298Z"/><path class="f5c07a76-e93b-4f67-96a7-1d55a8e02ecc" d="M86.4399,136.8429h17.2813a1.4992,1.4992,0,0,1,1.4992,1.4992v4.3664a1.4993,1.4993,0,0,1-1.4993,1.4993H86.4399a1.4993,1.4993,0,0,1-1.4993-1.4993v-4.3663A1.4993,1.4993,0,0,1,86.4399,136.8429Z"/><path class="a281e01d-5fa1-449a-ab40-8c8289ab8c0e" d="M90.4642,140.5254a1.9727,1.9727,0,1,1-1.9727-1.9728A1.97269,1.97269,0,0,1,90.4642,140.5254Z"/><path class="a4e79a7c-864e-4da1-9ba5-f5c7052cabc2" d="M103.9303,133.5298v3.8931a2.31508,2.31508,0,0,0-.2168.1926c-4.0053,3.8769-3.909,10.4669-7.2963,14.8977a11.49961,11.49961,0,0,1-2.5284,2.4241H75.8526a6.67016,6.67016,0,0,1-.7625-.6662,13.9511,13.9511,0,0,1-2.1111-3.1787l-1.7097-3.1785a5.74565,5.74565,0,0,1-.6582-1.6134,3.80674,3.80674,0,0,1,.9311-3.0101,12.41952,12.41952,0,0,1,2.4642-2.111,16.01829,16.01829,0,0,0,4.9445-4.9044,13.8375,13.8375,0,0,0,1.2522-7.7137c-.0401-.6261-.2649-1.5331-.4335-2.4482H96.5055A7.42167,7.42167,0,0,1,103.9303,133.5298Z"/><path class="f83f80ce-5d9a-4df4-8576-ba3a93b07010" d="M97.1994,115.8467a4.85785,4.85785,0,0,0,.4671-.493c.0206-.0254.0449-.0507.0644-.0761a2.84138,2.84138,0,0,0,.3419-.5626c.0104-.0231.0192-.0463.0287-.0695a1.86881,1.86881,0,0,0,.1531-.5874c-.0051-.1259-.0242-.2596-.0366-.3896-.2883-3.8438-3.5123-11.3989-7.6822-14.0441l-.0004-.0047a25.6318,25.6318,0,0,0-5.036-1.1227c-.116-.3002-.223-.6021-.3106-.9082-.0436-.1545-.077-.3116-.1139-.4677-.054-.2261-.1039-.4538-.1441-.6843-.0176-.1015-.0301-.2043-.045-.3065.4626-.0996,1.2307-.476,1.4767-1.9081.3585-2.0868,3.279-5.7796.4371-7.3191s-5.1648-2.1913-6.2355-.9781a3.71883,3.71883,0,0,1-4.3126.9423c-1.2576-.7242-.4285,2.677.9882,3.4973a3.95235,3.95235,0,0,0,.6588.2963,14.96981,14.96981,0,0,0,1.6128,4.923c-.1316-.0656-.1613-.0754-.0939.1495.1493.4982.6797,1.3048,1.1647,1.2179a1.884,1.884,0,0,0,.4034-.1318,4.57526,4.57526,0,0,0,.6359.0032,4.84,4.84,0,0,1-.2171.6414c-.0239.053-.0529.1002-.0789.151a3.26457,3.26457,0,0,1-.3358.5313,20.56375,20.56375,0,0,0-4.7768.2593,4.987,4.987,0,0,0-2.5356.7877c-1.9399,1.5198-3.9597,6.8948-5.3794,10.0457l-15.0956-5.6704.0032-.0057-1.2582-.3318a.70263.70263,0,0,0,.0385-.7641l-4.4285-7.5344a.852.852,0,0,0-1.1094-.303.73044.73044,0,0,0-.327,1.0283l2.7842,4.7368q-.26325-.22125-.4967.1009a16.87762,16.87762,0,0,0,.713,3.7371,9.92873,9.92873,0,0,0,2.9974,1.2117l.0024-.0041c.8794.4631,1.7987.9446,2.718,1.4448.02,0,.02.0186.04.0186,6.6794,3.6512,13.8185,7.9883,16.4782,6.3202a10.94681,10.94681,0,0,0,2.3928-2.6652c-.2191,2.4847-.3444,5.1098-.3859,7.7816a35.23072,35.23072,0,0,0-12.7767,4.382c-2.7567,2.0675-5.6842,13.6919-7.8279,23.1595.0915.0595.1794.1104.2675.1615l-.0013.0002a3.07926,3.07926,0,0,1-1.3641,1.7581c-.1045-.035-.1758-.0601-.1758-.0601-1.1003.2752-2.4603.4651-3.495.749l-.0395.0115c-.1087.0303-.2146.0615-.3151.0943-.0637.0204-.1226.0424-.1825.064-.0485.0177-.0974.0352-.1432.0537-.0726.0289-.1397.0593-.205.0904-.0275.0133-.0548.0264-.0809.0401a2.09334,2.09334,0,0,0-.1938.1134c-.0143.0095-.0275.0193-.0411.029a1.22968,1.22968,0,0,0-.1667.1392l-.0114.0131a.61591.61591,0,0,0-.184.5828l.0075.0019.0001.0016s.7325.1887,1.7836.4152c2.1086.4564,5.5034,1.0625,6.9889.6242.0294-.0085.0664-.0129.0943-.0222,1.1013-.3669.8635-1.6242.6786-2.2239a3.3886,3.3886,0,0,0-.117-.3307h-.0018c-.0541-.3601-.1721-.6574-.2073-.9497-.0032-.0259-.0018-.0523-.0035-.0782a1.03019,1.03019,0,0,1,.0634-.422,1.00493,1.00493,0,0,1,.0355-.1008c.015-.0314.0434-.0658.0623-.098.1074-.0074.2125-.014.3285-.0244.0159-.0016.0308,0,.0463-.002l.0007-.0014.0016-.0002,1.8441-4.0507,6.5812-14.4435c.0298-.0018.0592-.007.089-.0088.6991-.0428,1.3923-.1145,2.0821-.2046.0919-.0123.1836-.0287.2755-.0418q1.0155-.14145,2.0221-.3389a.25064.25064,0,0,1-.036.1004.1245.1245,0,0,0,.0315-.0585c-1.206,3.7033.5836,14.6223,2.2574,23.5489.1087.024.2106.0412.3129.0585l-.0011.0006a2.88819,2.88819,0,0,1-.5656,2.101c-.1111.0033-.1873.0044-.1873.0044-.8061.5592-1.8267,1.1261-2.6389,1.677l-.0079-.0024a7.0328,7.0328,0,0,0-.8118.6284l-.0068.0063q-.1023.09465-.1881.1881c-.0222.0239-.0422.0478-.0626.0717-.0391.0463-.0766.0924-.1087.1383-.0271.0383-.0485.0762-.0702.1142a1.15261,1.15261,0,0,0-.0553.1039.80009.80009,0,0,0-.0427.1371.72683.72683,0,0,0-.0201.0841.589.589,0,0,0,.0061.1379.57445.57445,0,0,0,.0082.0837.68283.68283,0,0,0,.0365.0798.65826.65826,0,0,0,.0598.1306,50.69123,50.69123,0,0,0,6.8519-1.2159,5.5537,5.5537,0,0,0,2.0288-.8932c.0144-.0134.0165-.0287.0299-.0423a1.09152,1.09152,0,0,0,.2431-.3434.89606.89606,0,0,0,.0319-.1485.99683.99683,0,0,0,.0397-.2577,1.20412,1.20412,0,0,0-.0295-.1896,1.46976,1.46976,0,0,0-.0481-.2104,1.92985,1.92985,0,0,0-.0981-.2269c-.0237-.048-.045-.095-.0719-.1414a3.03193,3.03193,0,0,0-.1761-.2724l-.0244-.0337a4.79349,4.79349,0,0,0-.6255-.6834l-.0018.0011c-.1832-.3003-.3949-.5295-.5454-.7723a1.09926,1.09926,0,0,1-.1647-.7338l.0025-.015c.0817-.0369.163-.0733.2496-.1143.0297-.0135.0593-.0229.0891-.0367v-.0041l.0004-.0001.4581-19.8498c4.7107-1.2234,9.8439-3.345,11.9916-6.9836.0586-.0988.105-.2036.1591-.3046.0842-.1581.173-.3138.2458-.4775.0974-.2174.1768-.4433.253-.6708.0165-.0496.0398-.0961.0552-.1462a1.89264,1.89264,0,0,0,.2623-.0418,2.44636,2.44636,0,0,0,.3288-.0852l.0007-.0026h.0069c.12-.4633.26-.8897.38-1.3531.0214-.0596.0328-.1192.0501-.1788.0494-.1587.094-.3135.0947-.3158,1.0983-.4259,2.1473-.853,3.1288-1.2823q.38805-.16935.7588-.3392c.1099-.0504.2222-.1007.3297-.1512.342-.1603.6692-.3213.9849-.4826.0876-.0448.1724-.0897.2579-.1347.3041-.1599.5974-.3202.8715-.4812.0299-.0175.0611-.0349.0906-.0524.28-.1668.5364-.3346.7801-.5029.0638-.0439.1275-.0879.1886-.1321.2368-.1709.456-.3426.6505-.5152C97.1366,115.9088,97.1661,115.8777,97.1994,115.8467ZM49.3641,101.1759l.9558,1.6261-.1254-.0331Zm43.6196,12.7082-2.9527,1.6127v-.0158c.0655-.3688.1093-.735.1638-1.1022.0534-.3526.1111-.7054.1572-1.0576.0109-.088.0197-.1765.03-.2645q.15675-1.2462.2542-2.489A35.14732,35.14732,0,0,0,92.9837,113.8841Z"/><path class="fcb6ce1f-93e4-4600-9d4e-eaba85b6a617" d="M51.8064,146.7376c-.2109,1.3983-2.1793,2.4416-2.1793,2.4416s4.8607,1.7649,5.0232.5575-.6345-1.7349.0686-2.6778S51.8064,146.7376,51.8064,146.7376Z"/><path class="a281e01d-5fa1-449a-ab40-8c8289ab8c0e" d="M51.5403,146.563c2.1436-10.2151,5.0711-22.7573,7.8279-24.988a35.04426,35.04426,0,0,1,14.9696-5.0545l4.2589,7.0303c-5.1661,1.56-10.0378,3.4149-15.2069,3.7369L54.97,147.2424A4.26735,4.26735,0,0,1,51.5403,146.563Z"/><path class="f5c07a76-e93b-4f67-96a7-1d55a8e02ecc" d="M54.6455,149.0587c-1.595.6204-4.379-.489-4.379-.489-2.1551.5815-5.3151.8079-5.0506,2.1406,0,0,6.7083,1.8736,8.8669,1.0975C55.5456,151.2819,54.6455,149.0587,54.6455,149.0587Z"/><path class="fcb6ce1f-93e4-4600-9d4e-eaba85b6a617" d="M70.4287,152.1642c.3214,1.3771-1.1215,3.0745-1.1215,3.0745s5.1688-.1584,4.8731-1.3402-1.2312-1.3771-.9268-2.5132S70.4287,152.1642,70.4287,152.1642Z"/><path class="a281e01d-5fa1-449a-ab40-8c8289ab8c0e" d="M70.1169,152.1004c-1.7871-10.2835-3.7068-23.0189-1.9708-26.1112a35.04482,35.04482,0,0,1,12.0382-10.2334l6.5573,4.9562c-1.3975,5.0275-7.3395,7.8267-12.7287,9.3322l-.4582,21.4187A4.26753,4.26753,0,0,1,70.1169,152.1004Z"/><path class="f5c07a76-e93b-4f67-96a7-1d55a8e02ecc" d="M73.9251,153.2705c-1.2524,1.1663-4.2493,1.1654-4.2493,1.1654-1.7871,1.3375-4.6393,2.7168-3.9005,3.8571,0,0,7.4635-.8586,8.8787-2.2715C75.7541,154.9232,73.9251,153.2705,73.9251,153.2705Z"/><path class="fcb6ce1f-93e4-4600-9d4e-eaba85b6a617" d="M77.8173,95.7282a56.06444,56.06444,0,0,1-5.0195,12.2988,12.12124,12.12124,0,0,1-2.6598,3.2996c-2.6597,1.7998-9.7989-2.8797-16.4782-6.8193-.02,0-.02-.02-.0401-.02-.9198-.54-1.8397-1.0598-2.7196-1.5597l1.0798-2.0199,15.0985,6.1194c1.4198-3.3997,3.4396-9.1991,5.3794-10.839C74.0576,95.0683,75.8974,95.1883,77.8173,95.7282Z"/><path class="e49c6452-5168-4af7-8ebf-444c62148114" d="M88.2561,116.726c-.12.64-.28,1.2799-.4199,1.9199a5.35794,5.35794,0,0,1-.14.5398c-.14.4801-.26.98-.4,1.46a2.06009,2.06009,0,0,1-.5799.14,19.53577,19.53577,0,0,1-4.3995-.0801c-3.4597-.3999-7.7592-1.4798-10.179-3.4396.1-8.6391.94-16.8982,2.8198-21.9177,1.1798-.4599,9.199-.66,14.3584,1.2999A68.09187,68.09187,0,0,1,88.2561,116.726Z"/><path class="fcb6ce1f-93e4-4600-9d4e-eaba85b6a617" d="M77.732,120.308l14.0324-8.2692c-2.1789-2.8807-5.2239-8.3133-5.3514-10.8594.0891-1.9468,1.3046-3.3333,2.8935-4.5339,4.3156,2.9439,7.6304,11.5809,7.7205,15.5797-.1976,3.6298-10.6419,6.8126-18.3461,10.18Z"/><path class="fcb6ce1f-93e4-4600-9d4e-eaba85b6a617" d="M77.732,120.308c-1.1467-.5415-3.2969,1.0064-3.2969,1.0064s-1.0752,1.1766-.5376,1.7257,3.934-.6972,4.7834-.6349C79.4658,122.4628,77.732,120.308,77.732,120.308Z"/><path class="fcb6ce1f-93e4-4600-9d4e-eaba85b6a617" d="M50.8994,102.9329a9.53,9.53,0,0,1-2.9975-1.3074,19.50264,19.50264,0,0,1-.713-4.0322c.1852-.2765.3836-.2925.5972-.0083l1.189,2.461,3.011.8568Z"/><path class="fcb6ce1f-93e4-4600-9d4e-eaba85b6a617" d="M79.6816,95.2097a7.18783,7.18783,0,0,0,1.0563-4.0564l2.7888-.0207a13.47209,13.47209,0,0,0,.829,4.5656C82.9366,97.0691,80.1691,96.9297,79.6816,95.2097Z"/><path class="fcb6ce1f-93e4-4600-9d4e-eaba85b6a617" d="M78.9522,93.3475c.7034.6247,3.0168.1546,4.3489-.4224l3.0711-7.1489-4.8086-4.15L76.318,84.3175C76.7134,87.795,77.2768,91.1098,78.9522,93.3475Z"/><path class="aba5d956-af5d-42e9-8f45-4eeb08b85730" d="M76.0204,86.6622c1.7564,1.0972,4.5649.5795,4.5649.5795l-.2929,2.3074.8225.0288s.4534-1.755,1.2508-1.4235c1.4967.6222-.3228.9915-.6038,2.3951-.1571.7851,1.5392,2.3756,1.5392,2.3756s1.4837.1509,1.8421-2.1007,3.279-6.2359.437-7.8969-5.1648-2.3644-6.2355-1.0553a3.533,3.533,0,0,1-4.3125,1.0167C73.7745,82.1074,74.6036,85.7772,76.0204,86.6622Z"/><path class="aba5d956-af5d-42e9-8f45-4eeb08b85730" d="M80.2924,89.5491s-.0934,2.8461-1.0192,2.9506-1.2245-.5823-1.0752-.0448.6797,1.4079,1.1648,1.3141c1.587-.3069,1.7521-2.215,1.7521-4.1911Z"/><path class="f83f80ce-5d9a-4df4-8576-ba3a93b07010" d="M70.2251,123.0455a12.30032,12.30032,0,0,0-2.0737,2.9487,3.501,3.501,0,0,0-.2663.6469c-.019.038-.019.0761-.0571.1141a.26927.26927,0,0,0,.0381-.1141,29.78817,29.78817,0,0,1-4.4707.6468l-8.4277,19.9562a2.9331,2.9331,0,0,1-.3994.0191c-.3426.6278-.0191,1.1034.057,1.7882h.019s.8941,2.2259-.5707,2.7586c-2.1497.7799-8.8653-1.1035-8.8653-1.1035-.1521-.7418.7801-1.1414,1.9975-1.4458,1.5981,1.1605,3.8239,1.9976,5.5171.78a4.02156,4.02156,0,0,0,.818-.799,6.48553,6.48553,0,0,0,.9702-1.9595c.0572-.1902.1142-.3995.1713-.6088a5.01415,5.01415,0,0,0,.1331-.5707c1.3507-6.6394,5.0985-23.0572,10.254-23.0572Z"/><path class="f83f80ce-5d9a-4df4-8576-ba3a93b07010" d="M87.3087,120.6485a2.08786,2.08786,0,0,1-.5898.1332c-1.4268,5.0033-7.3432,7.7618-12.7081,9.2647l-.4565,21.4211a2.7197,2.7197,0,0,1-.3424.1523c-.0951.7229.3614,1.0463.7039,1.655l.0379.038c.2854.2664,1.6932,1.7122.704,2.7015-1.4268,1.4268-8.8843,2.2828-8.8843,2.2828-.3995-.6277.2663-1.3316,1.2556-2.0545,2.1307.8371,4.2233.6468,5.2126-1.2936a5.53255,5.53255,0,0,0,.3424-.9512,7.60812,7.60812,0,0,0,.1902-2.1878,3.35116,3.35116,0,0,0-.0379-.742,5.67844,5.67844,0,0,0-.0762-.7799c-.9322-6.7536-5.4409-22.848.1332-24.1797s9.0174-2.1688,9.8925-5.3648a10.12268,10.12268,0,0,0,2.1688.1141,11.22041,11.22041,0,0,0,1.8834-.1521A3.58152,3.58152,0,0,1,87.3087,120.6485Z"/><path class="f83f80ce-5d9a-4df4-8576-ba3a93b07010" d="M89.3633,108.9297c-.1141,1.617-.2854,3.2151-.5516,4.8321v.019l-6.3161,3.7097c1.3316-.7991,5.7643-9.9497,3.9-15.5998a6.75578,6.75578,0,0,0,.3233.8561c.2093.4947.5517,1.2746,1.0844,2.3971.2854.6087.6088,1.3316.9131,2.0926,0,.019,0,.019.0191.0381C88.9447,107.8262,89.173,108.3779,89.3633,108.9297Z"/><path class="f83f80ce-5d9a-4df4-8576-ba3a93b07010" d="M87.6892,119.1836c-.1142.4946-.2473.9702-.3805,1.4649a2.08786,2.08786,0,0,1-.5898.1332c-.019.038-.019.095-.057.1331-1.2366.0761-3.6527.1523-3.9761-.1712l.0191-.0191h.019l2.6254-1.0653,2.4921-1.0082S87.7553,118.9743,87.6892,119.1836Z"/><path class="f83f80ce-5d9a-4df4-8576-ba3a93b07010" d="M84.36,95.6889a3.27712,3.27712,0,0,1-1.6932.8561c-.5326-.8561-2.0546-1.4078-2.7014-1.7693a3.94683,3.94683,0,0,0,.4375-1.1224.01871.01871,0,0,1,.0191-.0191,9.64154,9.64154,0,0,0,3.2341-.7039A12.49589,12.49589,0,0,0,84.36,95.6889Z"/><path class="f83f80ce-5d9a-4df4-8576-ba3a93b07010" d="M97.0352,112.2265c-.14,2.2598-4.2395,4.3595-9.199,6.4194a5.35794,5.35794,0,0,1-.14.5398c-.12.5-.26.96-.3799,1.46h-.0201a2.06009,2.06009,0,0,1-.5799.14,19.53577,19.53577,0,0,1-4.3995-.0801.01959.01959,0,0,1,.02-.02c.7199-.4199,1.5398-.9199,2.3997-1.4799,1.1198-.7399,2.3198-1.5797,3.5196-2.4797,3.5797-2.6796,7.0193-5.8193,7.9992-8.0392A11.48209,11.48209,0,0,1,97.0352,112.2265Z"/><path class="f5c07a76-e93b-4f67-96a7-1d55a8e02ecc" d="M50.4394,100.8298h0a.81781.81781,0,0,1-1.1094-.327l-4.4285-8.1292a.81783.81783,0,0,1,.3269-1.1094h0a.81792.81792,0,0,1,1.1095.3269l4.4284,8.1292A.81792.81792,0,0,1,50.4394,100.8298Z"/><path class="a281e01d-5fa1-449a-ab40-8c8289ab8c0e" d="M47.3596,95.1763h0a.185.185,0,0,1-.251-.074l-1.1881-2.1808a.18508.18508,0,0,1,.074-.2511h0a.18508.18508,0,0,1,.2511.074l1.188,2.1809A.185.185,0,0,1,47.3596,95.1763Z"/><path class="a281e01d-5fa1-449a-ab40-8c8289ab8c0e" d="M48.1994,96.7178h0a.18508.18508,0,0,1-.2511-.074l-.5055-.9279a.18508.18508,0,0,1,.074-.2511h0a.18519.18519,0,0,1,.2511.074l.5054.9279A.18513.18513,0,0,1,48.1994,96.7178Z"/><path class="f83f80ce-5d9a-4df4-8576-ba3a93b07010" d="M73.5177,103.5275a33.11771,33.11771,0,0,1-.7199,4.4995,12.12124,12.12124,0,0,1-2.6598,3.2996c-2.6597,1.7998-9.7989-2.8797-16.4782-6.8193,1.9198,1.1199,10.3188,4.4395,14.0185,5.0195S71.6979,106.9071,73.5177,103.5275Z"/></g></g></g></svg>